<?xml version="1.0" encoding="UTF-8"?>
<svg width="1667px" height="292px" viewBox="0 0 1667 292" version="1.1" xmlns="http://www.w3.org/2000/svg" xmlns:xlink="http://www.w3.org/1999/xlink">
    <!-- Generator: Sketch 51.3 (57544) - http://www.bohemiancoding.com/sketch -->
    <title>Artboard</title>
    <desc>Created with Sketch.</desc>
    <defs></defs>
    <g id="Artboard" stroke="none" stroke-width="1" fill="none" fill-rule="evenodd">
        <g id="LMI_GoToWebinar_Blue_HEX" transform="translate(234.000000, 0.000000)" fill-rule="nonzero">
            <g id="Group" transform="translate(200.499687, 29.703657)" fill="#53565A">
                <path d="M99.7263166,57.2500866 L63.3579011,57.2500866 C58.256298,57.2500866 55.2933581,60.0496563 55.2933581,65.1512594 L55.2933581,68.7713927 C55.2933581,73.8729958 58.256298,76.6725655 63.3579011,76.6725655 L83.2704904,76.6725655 L83.2704904,94.4464915 C77.3446107,97.5728014 69.9409742,99.0542713 63.190818,99.0542713 C39.4947254,99.0542713 26.1652092,81.7741687 26.1652092,62.3554027 C26.1652092,41.9489901 41.4700186,25.656534 62.0398013,25.656534 C68.6228744,25.656534 75.0425773,25.9869872 83.7643137,30.427684 C88.3720935,32.5663473 91.8288567,32.2396071 94.7880835,28.1256505 L98.9020401,22.8606773 C101.86498,18.7467207 101.371157,14.6327642 96.9304598,11.8331945 C86.8943366,5.91102781 75.6997707,2.94808799 62.0435143,2.94808799 C26.001839,2.94437503 0,29.9338607 0,62.5150598 C0,94.7695187 25.5080157,121.759004 62.7007077,121.759004 C76.3569641,121.759004 90.3436738,117.645048 102.689256,108.429488 C106.476473,105.629918 107.79086,102.503609 107.79086,98.3933649 L107.79086,65.1512594 C107.79086,60.0459433 104.82792,57.2500866 99.7263166,57.2500866 Z" id="Shape"></path>
                <path d="M166.711777,33.5539939 C139.889374,33.5539939 119.813415,53.3032131 119.813415,77.6564992 C119.813415,102.176868 139.893087,121.759004 166.711777,121.759004 C193.537892,121.759004 213.613852,102.009785 213.613852,77.6564992 C213.613852,53.3032131 193.537892,33.5539939 166.711777,33.5539939 Z M166.711777,101.189222 C153.879797,101.189222 144.003331,90.9860154 144.003331,77.8198693 C144.003331,64.490353 153.879797,54.2871467 166.711777,54.2871467 C179.3841,54.2871467 189.423936,64.490353 189.423936,77.8198693 C189.423936,90.9860154 179.3841,101.189222 166.711777,101.189222 Z" id="Shape"></path>
                <path d="M290.965888,18.9063779 L290.965888,12.653758 C290.965888,7.55215488 288.002949,4.75629813 282.901345,4.75629813 L204.238635,4.75629813 C199.140745,4.75629813 196.341175,7.55215488 196.341175,12.653758 L196.341175,18.9063779 C196.341175,24.007981 199.140745,26.8075507 204.238635,26.8075507 L230.570927,26.8075507 L230.570927,112.049621 C230.570927,117.151225 233.370497,119.950794 238.4721,119.950794 L248.348566,119.950794 C253.446456,119.950794 256.249739,117.151225 256.249739,112.049621 L256.249739,26.8038378 L282.908771,26.8038378 C288.002949,26.8038378 290.965888,24.007981 290.965888,18.9063779 Z" id="Shape"></path>
                <path d="M320.591574,33.5539939 C293.769171,33.5539939 273.693212,53.3032131 273.693212,77.6564992 C273.693212,102.176868 293.772884,121.759004 320.591574,121.759004 C347.417689,121.759004 367.493649,102.009785 367.493649,77.6564992 C367.493649,53.3032131 347.417689,33.5539939 320.591574,33.5539939 Z M320.591574,101.189222 C307.759594,101.189222 297.883128,90.9860154 297.883128,77.8198693 C297.883128,64.490353 307.759594,54.2871467 320.591574,54.2871467 C333.263896,54.2871467 343.303733,64.490353 343.303733,77.8198693 C343.30002,90.9860154 333.263896,101.189222 320.591574,101.189222 Z" id="Shape"></path>
                <path d="M515.443853,4.75258517 L511.493266,4.75258517 C508.857067,4.75258517 507.21594,5.9036019 506.555033,8.37271841 L477.757338,98.7201052 L450.771565,12.1599347 C450.110659,9.69081821 448.469531,8.53980148 445.833332,8.53980148 L442.539939,8.53980148 C440.074535,8.53980148 438.262612,9.69081821 437.605419,12.1599347 L410.615933,98.7201052 L381.981607,8.37271841 C381.157331,5.9036019 379.512491,4.75258517 377.043374,4.75258517 L373.092788,4.75258517 C369.966478,4.75258517 368.485008,6.72787839 369.309285,9.85418832 L402.881843,116.326948 C403.70612,118.796065 405.35096,119.947081 407.820076,119.947081 L411.934033,119.947081 C414.56652,119.947081 416.21136,118.796065 416.868553,116.326948 L444.184779,28.2853077 L471.501005,116.326948 C472.325281,118.796065 473.970121,119.947081 476.439238,119.947081 L480.553194,119.947081 C483.022311,119.947081 484.667151,118.796065 485.487714,116.326948 L519.223643,9.85418832 C520.051633,6.72787839 518.570163,4.75258517 515.443853,4.75258517 Z" id="Shape"></path>
                <path d="M562.026613,36.0193975 C536.681968,36.0193975 518.087478,55.4381635 518.087478,79.3013392 C518.087478,102.503609 535.857691,121.759004 564.165277,121.759004 C574.531853,121.759004 585.722706,119.126518 595.268719,111.061975 C598.068289,108.756228 598.068289,106.123742 596.256366,104.148449 L594.938266,102.834062 C593.130056,101.022139 590.987679,100.858768 588.849016,102.340238 C581.282009,108.099035 572.890726,110.568151 564.165277,110.568151 C543.925947,110.568151 529.605071,97.0752651 530.759801,78.8075159 L598.721769,78.8075159 C601.684709,78.8075159 603.492919,77.1626758 602.999096,74.3631061 C600.864145,48.0345269 582.102573,36.0193975 562.026613,36.0193975 Z M531.910818,69.0981329 C536.681968,53.9566936 549.521374,47.2102504 562.357067,47.2102504 C573.71129,47.2102504 586.546983,52.1484834 590.334199,69.0981329 L531.910818,69.0981329 Z" id="Shape"></path>
                <path d="M663.572279,36.0193975 C650.573216,36.0193975 638.88854,41.6148239 631.484903,53.9566936 L631.484903,5.40977859 C631.484903,2.61392185 629.840063,0.965368863 627.040493,0.965368863 L623.25699,0.965368863 C620.624503,0.965368863 618.979663,2.61020889 618.979663,5.40977859 L618.979663,115.502672 C618.979663,118.298528 620.624503,119.947081 623.25699,119.947081 L627.040493,119.947081 C629.840063,119.947081 631.484903,118.302241 631.484903,115.502672 L631.484903,103.817995 C638.88854,116.323235 650.573216,121.755291 663.572279,121.755291 C688.586471,121.755291 704.715557,102.499896 704.715557,78.967173 C704.711844,55.2747933 688.586471,36.0193975 663.572279,36.0193975 Z M662.254179,110.568151 C644.1498,110.568151 631.314107,97.4020054 631.150737,78.970886 C631.314107,60.3763965 644.1498,47.2102504 662.254179,47.2102504 C681.015752,47.2102504 692.039522,61.5274132 692.039522,78.970886 C692.043235,96.2509886 681.015752,110.568151 662.254179,110.568151 Z" id="Shape"></path>
                <path d="M728.582446,1.13245194 C723.31376,1.13245194 719.530256,5.08303836 719.530256,10.5113817 C719.530256,15.776355 723.31376,19.7269414 728.582446,19.7269414 C733.680336,19.7269414 737.630923,15.776355 737.630923,10.5113817 C737.630923,5.08303836 733.680336,1.13245194 728.582446,1.13245194 Z" id="Shape"></path>
                <path d="M730.554026,37.8313206 L726.770523,37.8313206 C723.970953,37.8313206 722.329826,39.6432437 722.329826,42.2757303 L722.329826,115.506385 C722.329826,118.302241 723.974666,119.950794 726.770523,119.950794 L730.554026,119.950794 C733.190226,119.950794 734.831353,118.305954 734.831353,115.506385 L734.831353,42.2720173 C734.835066,39.4761606 733.190226,37.8313206 730.554026,37.8313206 Z" id="Shape"></path>
                <path d="M799.837807,36.0193975 C787.66302,36.0193975 775.647891,42.2720173 771.203481,55.2747933 L771.203481,42.2720173 C771.203481,39.4761606 769.558641,37.8276076 766.759072,37.8276076 L762.975568,37.8276076 C760.343082,37.8276076 758.698242,39.6395307 758.698242,42.2720173 L758.698242,115.502672 C758.698242,118.298528 760.343082,119.947081 762.975568,119.947081 L766.759072,119.947081 C769.558641,119.947081 771.203481,118.302241 771.203481,115.502672 L771.203481,80.1219027 C771.366851,53.6262404 789.965054,47.2102504 799.013531,47.2102504 C809.38382,47.2102504 819.750396,53.4628703 819.750396,73.3754595 L819.750396,115.502672 C819.750396,118.298528 821.395236,119.947081 824.194806,119.947081 L827.978309,119.947081 C830.777879,119.947081 832.422719,118.302241 832.422719,115.502672 L832.422719,73.3754595 C832.422719,46.2226038 817.284993,36.0193975 799.837807,36.0193975 Z" id="Shape"></path>
                <path d="M929.520262,37.8313206 L925.736759,37.8313206 C922.937189,37.8313206 921.459432,39.6432437 921.459432,42.2757303 L921.459432,54.1237766 C914.055795,41.781907 902.534489,36.0193975 889.204973,36.0193975 C864.023698,36.0193975 848.228778,55.4381635 848.228778,78.970886 C848.228778,102.503609 864.357864,121.759004 889.204973,121.759004 C902.371119,121.759004 914.052082,116.326948 921.459432,103.821708 L921.459432,115.506385 C921.459432,118.302241 922.940902,119.950794 925.736759,119.950794 L929.520262,119.950794 C932.319832,119.950794 933.964672,118.305954 933.964672,115.506385 L933.964672,42.2720173 C933.964672,39.4761606 932.319832,37.8313206 929.520262,37.8313206 Z M890.686443,110.568151 C871.7615,110.568151 860.73773,96.2509886 860.73773,78.970886 C860.73773,61.6907833 871.59813,47.2102504 890.523073,47.2102504 C909.121275,47.2102504 921.626515,60.8702198 921.626515,78.970886 C921.622802,97.4020054 908.787109,110.568151 890.686443,110.568151 Z" id="Shape"></path>
                <path d="M994.534142,36.3498507 C993.383125,36.1827676 991.571202,36.0193975 990.583556,36.0193975 C978.572139,36.0193975 969.68332,44.4106807 966.55701,57.7439099 L966.55701,42.2757303 C966.55701,39.4798736 964.91217,37.8313206 962.1126,37.8313206 L958.329097,37.8313206 C955.69661,37.8313206 954.05177,39.6432437 954.05177,42.2757303 L954.05177,115.506385 C954.05177,118.302241 955.69661,119.950794 958.329097,119.950794 L962.1126,119.950794 C964.91217,119.950794 966.55701,118.305954 966.55701,115.506385 L966.55701,88.680269 C966.72038,57.4134567 979.22562,48.197897 989.759279,48.197897 C991.077379,48.197897 992.722219,48.3612671 994.203689,48.5283502 C996.342352,49.1855436 997.493369,47.8711568 997.493369,44.7448468 L997.493369,41.2880837 C997.493369,38.8189672 997.003259,36.843674 994.534142,36.3498507 Z" id="Shape"></path>
            </g>
            <g id="Group" transform="translate(586.647232, 170.796030)" fill="#A7A8AA">
                <g transform="translate(92.823929, 0.000000)" id="Shape">
                    <path d="M306.252133,7.66354359 C306.203865,7.70067316 306.155596,7.71552499 306.103615,7.73408978 C306.051633,7.74894161 305.992226,7.77121935 305.936532,7.78607118 C305.880837,7.82691371 305.825143,7.84919145 305.791726,7.87889511 C305.747171,7.91602468 305.713754,7.95315425 305.710041,8.00513565 C305.710041,8.03112635 305.710041,8.0534041 305.713754,8.07568184 C305.728606,8.1053855 305.739745,8.11281141 305.747171,8.13508915 C305.773162,8.19820943 305.791726,8.25019083 305.825143,8.29103335 C305.862273,8.33187588 305.888263,8.38385728 305.929106,8.43212573 L306.61229,9.48660556 C306.653132,9.54601288 306.682836,9.59428132 306.719966,9.65368863 C306.749669,9.70195708 306.786799,9.76136439 306.797938,9.82077171 C306.831354,9.89503085 306.816503,9.96928999 306.768234,10.0249844 C306.73853,10.0324103 306.705114,10.0509751 306.705114,10.0509751 C306.67541,10.0509751 306.630855,10.0509751 306.590012,10.058401 C306.534318,10.0732528 306.467485,10.0732528 306.396938,10.058401 C306.359809,10.0509751 306.31154,10.0361232 306.292976,10.0361232 C306.244707,10.0361232 306.226142,10.0286973 306.1853,10.0101325 C306.12218,9.96928999 306.062772,9.90616972 306.025643,9.83191058 C305.977374,9.76507735 305.936532,9.69081821 305.880837,9.64254976 L305.175375,8.495246 C305.101116,8.40984798 305.056561,8.32073701 305.008292,8.23162604 C304.948885,8.13880211 304.8672,8.05711705 304.792941,7.98285791 C304.733534,7.95686721 304.696404,7.94944129 304.625858,7.93830242 C304.559025,7.93830242 304.481052,7.93087651 304.414219,7.93087651 L304.310256,7.93087651 C304.247136,7.94944129 304.195155,7.95686721 304.154312,7.97171904 C304.11347,7.98285791 304.065201,8.0014227 304.039211,8.03483931 C304.005794,8.1053855 303.987229,8.17593168 303.97609,8.2613297 C303.97609,8.36157954 303.97609,8.46554234 303.97609,8.55094036 L303.97609,9.46804078 C303.97609,9.55343879 303.97609,9.64254976 303.97609,9.71309595 C303.987229,9.79478101 303.97609,9.86532719 303.946387,9.93587338 C303.938961,9.96928999 303.890692,10.0027066 303.834998,10.0286973 C303.771878,10.054688 303.723609,10.0621139 303.656776,10.0621139 C303.593656,10.0732528 303.534248,10.0621139 303.467415,10.0621139 C303.411721,10.054688 303.356026,10.0398362 303.307758,10.0138455 C303.28548,9.97671591 303.270628,9.96186408 303.240925,9.90988268 C303.240925,9.88017902 303.229786,9.83562354 303.229786,9.80591988 L303.229786,9.73166074 C303.218647,9.70567004 303.218647,9.64254976 303.218647,9.58314245 C303.218647,9.53487401 303.229786,9.48289261 303.229786,9.42348529 L303.229786,5.59542645 C303.229786,5.53230618 303.229786,5.46547295 303.229786,5.40235268 C303.229786,5.33923241 303.229786,5.28353805 303.266916,5.23898256 C303.304045,5.18700116 303.333749,5.16472342 303.408008,5.13873272 C303.426573,5.13873272 303.445137,5.13501976 303.456276,5.13501976 L303.508258,5.13501976 L304.707543,5.13501976 C305.063987,5.13501976 305.383301,5.13873272 305.632069,5.16472342 C305.917967,5.17586229 306.133318,5.26497326 306.363522,5.42091746 C306.445207,5.46547295 306.530605,5.53230618 306.586299,5.59542645 C306.701401,5.75508361 306.790512,5.94444442 306.827641,6.14865707 L306.853632,6.36400858 L306.853632,6.46797139 C306.879623,6.53851757 306.879623,6.62762854 306.853632,6.72045247 C306.842493,6.84298006 306.816503,6.92466512 306.805364,6.97293356 C306.753382,7.14001663 306.682836,7.28482196 306.586299,7.38878476 C306.493475,7.47789573 306.3858,7.58185854 306.252133,7.66354359 Z M304.648136,7.32566449 C304.792941,7.32566449 304.93032,7.32566449 305.045422,7.31452562 C305.190227,7.31452562 305.312755,7.29224788 305.420431,7.28482196 C305.542958,7.2551183 305.624643,7.22541465 305.728606,7.18828508 C305.814004,7.1511555 305.888263,7.08803523 305.951384,6.99892426 C306.010791,6.9172392 306.066485,6.80585049 306.081337,6.70188769 C306.114754,6.61277671 306.125893,6.51252687 306.107328,6.40856407 C306.081337,6.30460127 306.077624,6.23034213 306.040495,6.16722185 C305.9848,6.04098131 305.88455,5.94073147 305.776875,5.87389824 C305.643208,5.82191684 305.539245,5.77736135 305.35731,5.75137065 C305.201366,5.73651882 305.037996,5.71424108 304.856061,5.71424108 C304.655561,5.71424108 304.47734,5.71424108 304.299118,5.71424108 C304.299118,5.71424108 304.273127,5.71424108 304.258275,5.72166699 C304.235997,5.73651882 304.224858,5.73651882 304.202581,5.73651882 C304.135747,5.75137065 304.07634,5.79221318 304.046637,5.84048162 C304.020646,5.86647232 304.020646,5.90731485 304.01322,5.92587964 C304.009507,5.95929625 304.009507,5.98528695 303.994655,6.01499061 L303.994655,6.1375182 C303.983516,6.17836073 303.972377,6.23034213 303.983516,6.27861057 C303.983516,6.32687901 303.983516,6.3714345 303.983516,6.43084181 C303.983516,6.54594349 303.983516,6.6833229 303.983516,6.85040597 C303.97609,7.00635017 303.994655,7.13259072 304.046637,7.19571099 C304.098618,7.27739605 304.180303,7.31452562 304.299118,7.31452562 C304.417932,7.32566449 304.533034,7.32566449 304.648136,7.32566449 Z"></path>
                    <path d="M304.80408,12.5312304 C302.086195,12.5312304 299.873273,10.318308 299.873273,7.58928445 C299.873273,4.8713998 302.089908,2.66590325 304.80408,2.66590325 C307.536816,2.66590325 309.7386,4.8713998 309.7386,7.58928445 C309.7386,10.318308 307.536816,12.5312304 304.80408,12.5312304 Z M304.80408,3.44562425 C302.516898,3.44562425 300.652994,5.30210283 300.652994,7.58928445 C300.652994,9.87275311 302.516898,11.7403706 304.80408,11.7403706 C307.094974,11.7403706 308.958879,9.87275311 308.958879,7.58928445 C308.958879,5.30210283 307.094974,3.44562425 304.80408,3.44562425 Z"></path>
                    <path d="M33.5280032,67.4458669 L33.5280032,63.9928168 C33.5280032,63.4915676 33.5280032,63.016309 33.5280032,62.5633283 C33.5280032,62.1177734 33.3980497,61.7427647 33.1455686,61.4345893 C32.9970503,61.2489414 32.681449,61.0929972 32.1950516,60.9964603 C31.723506,60.8887846 31.2185439,60.8330902 30.6616003,60.7959607 C30.1120826,60.7811088 29.5328613,60.7811088 28.9573529,60.7959607 C28.3372891,60.8330902 27.8360399,60.8479421 27.4350405,60.8479421 L17.3209452,60.8479421 C16.3147338,60.8479421 15.2825317,60.8479421 14.2354778,60.8479421 C13.1809979,60.8479421 12.4755361,60.50635 12.1228052,59.8677214 C12.0336942,59.6115273 11.9742869,59.3330555 11.9482962,58.9951764 C11.9111666,58.6795751 11.9074536,58.3342701 11.9074536,57.992678 L11.9074536,57.2352347 C11.9074536,56.778541 11.8443334,56.6411616 11.8591852,56.2661529 C11.8888888,55.8985702 11.8220556,55.3750432 11.8220556,54.9888956 L11.8220556,50.540773 L11.8220556,27.8026233 L11.8220556,20.9596432 C11.8220556,20.3210146 11.8220556,19.7046637 11.8220556,19.1402942 C11.8220556,18.5610729 11.7069539,18.0969532 11.4581858,17.7442223 C11.1982788,17.3989173 10.8121313,17.2058435 10.2811784,17.1798528 C9.76507735,17.1575751 9.23041152,17.1464362 8.66604203,17.1464362 L2.30203344,17.1464362 C2.19064473,17.1872787 2.0978208,17.2058435 2.00870983,17.1798528 C1.90103407,17.1575751 1.79707127,17.1724269 1.68939551,17.2169824 C1.09532236,17.3692136 0.701748905,17.6179818 0.49753626,17.9707127 C0.352730931,18.2231938 0.263619959,18.5759247 0.237629259,19.0289055 C0.211638559,19.4707474 0.19678673,19.9237282 0.19678673,20.3841348 L0.19678673,25.0958775 L0.19678673,42.0715177 L0.19678673,61.9692551 L0.19678673,67.2305154 C0.19678673,67.6797832 0.19678673,68.136477 0.19678673,68.6117355 C0.19678673,69.0944199 0.289610659,69.4694286 0.501249218,69.781317 C0.753730305,70.1748905 1.13616489,70.4088068 1.65969185,70.4830659 C2.19064473,70.561038 2.80699562,70.6093064 3.50874452,70.6093064 L8.89624537,70.6093064 L24.8136927,70.6093064 L30.1454992,70.6093064 C30.602193,70.6093064 31.0625997,70.6093064 31.5787007,70.6093064 C32.0688111,70.6093064 32.4438197,70.5090566 32.6925879,70.304844 C33.0007633,70.1600386 33.2458185,69.8852798 33.4426052,69.4694286 C33.546568,69.2280864 33.5911235,68.916198 33.5688457,68.5746059 C33.5280032,68.2255879 33.5280032,67.8505793 33.5280032,67.4458669 Z"></path>
                    <path d="M74.203449,51.0011796 C74.203449,50.8563743 74.203449,50.7189949 74.203449,50.5853284 C74.1329028,48.6583037 73.8804217,46.9206397 73.505413,45.6767991 C73.4794223,45.6248177 73.4719964,45.5802622 73.4682835,45.5245678 C73.3531818,45.0753 73.2306542,44.640884 73.078423,44.2473106 C72.8259419,43.5567005 72.6105904,42.8809423 72.4100907,42.2608785 C72.205878,41.6296758 71.9348322,41.0430285 71.5895271,40.4972238 C71.2293703,39.9477062 70.8989171,39.4130403 70.5721769,38.919217 C70.2454366,38.4253937 69.8889928,37.9130056 69.4805675,37.4154694 C69.0758551,36.8659517 68.5968837,36.3535636 68.0065235,35.885731 C67.4458669,35.4067595 66.8777845,34.9686306 66.3319798,34.5564924 C65.3814628,33.8992989 64.3455477,33.3237906 63.2205217,32.8262543 C61.5942464,31.7123672 58.1189185,30.9512109 54.1089248,30.9512109 C54.0161009,30.9512109 53.9307029,30.9586369 53.834166,30.9586369 C53.6039626,30.9586369 53.3551945,30.9586369 53.1101393,30.9586369 C53.0730097,30.9586369 53.0284543,30.9772016 53.0284543,30.9772016 C52.5903253,30.9957664 52.1893259,31.0106183 51.7994654,31.0514608 C51.5395584,31.0514608 51.231383,31.0737385 50.9417723,31.118294 C50.9120687,31.1294329 50.8935039,31.1294329 50.882365,31.1368588 C48.3389894,31.4004788 46.2485945,32.0056908 45.0530223,32.7816988 C44.5146435,32.9636337 43.9948295,33.1901241 43.5084321,33.4388922 C41.7150738,34.586196 40.1593447,35.8634533 38.9155041,37.2298215 C37.6568116,38.6110416 36.5874799,40.3264278 35.6926572,42.3685542 C35.4327502,42.9700533 35.2396765,43.5975431 35.1022971,44.2027551 C34.9463529,44.8376708 34.764418,45.4874383 34.5750571,46.1223539 C34.4748073,46.374835 34.4079741,46.6124643 34.4079741,46.8389547 C34.4079741,46.9354916 34.4079741,47.0283155 34.4005482,47.1322783 C34.3671315,47.2993614 34.3374279,47.4738703 34.3002983,47.6483793 C34.2483169,47.8266013 34.2186133,48.0048232 34.2186133,48.1904711 C34.1035116,49.0221735 34.0403913,49.9466998 34.0069747,50.9157816 C33.9958358,51.0754388 33.9958358,51.2128182 33.9958358,51.3427717 C33.9958358,51.4355956 33.9958358,51.5209937 33.9958358,51.5878269 C33.9958358,54.2128876 34.3671315,56.5297729 34.9463529,57.9258448 C35.0317509,58.2711498 35.1320007,58.6238807 35.1988339,58.9506209 C35.3325004,59.4592961 35.5218612,59.9345546 35.7594905,60.3801095 C36.6283225,62.3442638 37.6605245,64.0150945 38.919217,65.4185923 C40.1630577,66.8183772 41.6853701,68.047366 43.426747,69.0981329 C43.9911165,69.3988824 44.5183564,69.6513635 45.0418834,69.8444373 C45.5579844,70.041224 46.1334928,70.2565755 46.7312789,70.4533622 C47.1434172,70.6315842 47.5852591,70.7726766 48.0382398,70.8692135 C49.4491636,71.3667497 51.6360953,71.689777 54.1052118,71.689777 C56.5631895,71.689777 58.768686,71.3667497 60.1684709,70.8617875 L60.1870357,70.8617875 C60.8293773,70.7392599 61.4494411,70.5498991 62.062079,70.301131 C64.4457976,69.2949196 66.4953499,68.047366 68.2107361,66.5510443 C69.8927057,65.0510096 71.2776387,63.0979941 72.3321186,60.6845719 C72.5808867,60.1833227 72.7813864,59.6523698 72.9373306,59.0731485 C73.07471,58.5013531 73.2640708,57.9369836 73.4645705,57.3800401 C73.4757094,57.2463736 73.5017001,57.123846 73.5239778,56.9976055 C73.943542,55.5792558 74.203449,53.5891108 74.203449,51.3687624 C74.203449,51.2945033 74.203449,51.2091052 74.203449,51.1199943 C74.203449,51.0791517 74.203449,51.0494481 74.203449,51.0011796 Z M62.9494758,56.5594765 C62.849226,57.0570128 62.7081336,57.561975 62.500208,58.0557983 C61.9469774,59.3144907 61.2786451,60.3578317 60.4766463,61.2229507 C59.6783605,62.069505 58.6201678,62.7489761 57.3280587,63.2316606 C56.9827536,63.3913177 56.5743284,63.4247343 56.1956067,63.5509749 C55.7314871,63.6846413 55.5569781,63.6846413 55.1819694,63.7626134 L54.7624053,63.7626134 C54.1980358,63.8183078 53.9789713,63.8331596 53.7599068,63.803456 C53.5297035,63.7737523 53.306926,63.8554374 53.1175652,63.803456 C52.9207785,63.7403357 52.8650841,63.7626134 52.6497326,63.7366227 C52.5049273,63.7180579 52.274724,63.6735025 52.0779372,63.6178081 C51.6286694,63.5101323 51.1831145,63.3876048 50.7561245,63.2279476 C50.3328474,63.0942811 49.9466998,62.8900685 49.586543,62.6375874 C48.3501282,61.8875701 47.4404537,61.0558677 46.8612324,60.1239154 C46.374835,59.3404814 45.9144283,58.3639737 45.4837253,57.1832533 C44.8933651,55.9579775 44.5072176,53.8193141 44.5072176,51.3873272 C44.5072176,49.3154971 44.7782634,47.4478796 45.2349572,46.204039 C45.2832256,45.9886875 45.3277811,45.7919007 45.3983273,45.595114 C45.8364562,44.2435976 46.4490942,43.0517384 47.2288152,42.038101 C48.0085362,41.005899 49.0184605,40.2076132 50.277153,39.6692344 C50.5147823,39.5207161 50.8155318,39.4093274 51.1385591,39.3202164 C51.4615863,39.2533832 51.7994654,39.1754111 52.1484834,39.0603094 C52.2858628,39.0157539 52.4863625,38.9860503 52.6831492,38.9526336 C52.9096396,38.9266429 52.8428064,38.9526336 53.1918244,38.9155041 C53.6448052,38.8709486 54.0977859,38.9043652 54.5396278,38.8783745 C54.9926086,38.8523838 55.4195987,38.8858004 55.8205981,38.9860503 C56.1659031,39.093726 56.4963563,39.1754111 56.7933928,39.2533832 C57.0904294,39.3202164 57.4023178,39.4093274 57.6956414,39.5170031 C58.9506209,40.0739467 59.9494064,40.8053993 60.7105626,41.7336386 C61.46058,42.650739 62.0992086,43.7831909 62.6487263,45.0715871 C62.7898187,45.4800123 62.9197722,45.8847247 62.9866054,46.3117147 C63.0014572,46.3674091 63.016309,46.4305294 63.023735,46.4973626 C63.4173084,47.7449162 63.6549377,49.4751543 63.6549377,51.3873272 C63.6549377,53.3551945 63.3876048,55.129988 62.9866054,56.3812546 C62.9866054,56.433236 62.9717536,56.5000692 62.9494758,56.5594765 Z"></path>
                    <path d="M176.532549,17.4434728 C176.291206,17.246686 175.916198,17.1464362 175.437226,17.1464362 C174.980532,17.1464362 174.494135,17.1464362 174.056006,17.1464362 L168.872718,17.1464362 L163.986466,17.1464362 C163.48893,17.1464362 163.028523,17.1464362 162.530987,17.1464362 C162.052016,17.1464362 161.665868,17.2726767 161.365118,17.514019 C160.975258,17.770213 160.693073,18.0969532 160.544555,18.4905267 C160.392324,18.898952 160.251231,19.2962384 160.102713,19.6972378 C159.83538,20.4992365 159.594038,21.2975223 159.34527,22.0586785 C159.077937,22.8272607 158.851446,23.6181205 158.591539,24.4238322 C157.592754,27.5315774 156.586543,30.6207578 155.580331,33.6950863 C154.577833,36.7768407 153.575334,39.8400304 152.580262,42.8883682 C152.171837,44.0468109 151.822819,45.1792628 151.496078,46.3154277 C151.169338,47.4441667 150.798042,48.5729057 150.415608,49.7239224 C150.252238,50.1286347 150.103719,50.5779025 149.951488,51.0791517 C149.884655,51.2945033 149.80297,51.4727252 149.695294,51.6175305 C149.446526,52.1150668 149.153202,52.3749738 148.859879,52.3749738 C148.314074,52.3749738 147.816538,51.4133179 147.452668,49.8687277 C147.151918,49.0890067 146.880873,48.287008 146.658095,47.4738703 C146.353633,46.4268164 146.015754,45.3946143 145.614754,44.3921159 C144.411756,41.1841209 143.290443,37.9612741 142.265667,34.7161495 C141.226039,31.4561731 140.152994,28.26303 138.998265,25.0921645 C138.704941,24.2604621 138.41533,23.406482 138.144284,22.5859184 C137.858387,21.7690679 137.568776,20.9485043 137.271739,20.1465056 C137.115795,19.6935248 136.967277,19.2331181 136.822472,18.7541467 C136.677666,18.2788881 136.421472,17.9187313 136.07988,17.6662502 C135.623186,17.3135193 134.977132,17.1427232 134.160281,17.1427232 C133.321153,17.1427232 132.515441,17.1427232 131.706017,17.1427232 L121.870393,17.1427232 C121.784995,17.1835658 121.673606,17.2021306 121.577069,17.1761399 C121.480533,17.1538621 121.37657,17.1687139 121.27632,17.2132694 C120.674821,17.3655007 120.273822,17.6142688 120.069609,17.9669997 C119.980498,18.1786383 119.902526,18.4571101 119.85797,18.8395447 C119.79485,19.2034145 119.779998,19.5969879 119.779998,19.9905614 C119.779998,20.3841348 119.779998,20.8111249 119.779998,21.2269761 C119.779998,21.6651051 119.779998,22.017836 119.779998,22.3260114 L119.779998,32.8225414 L119.779998,60.76997 L119.779998,67.3678948 C119.779998,67.9174125 119.79485,68.4557913 119.85797,68.9867442 C119.902526,69.5065582 120.069609,69.8964187 120.388923,70.1488998 C120.674821,70.390242 121.064681,70.5276214 121.499097,70.5498991 C121.944652,70.5721769 122.442189,70.5981676 122.999132,70.5981676 L126.912589,70.5981676 C127.306162,70.5981676 127.703449,70.5981676 128.108161,70.6278712 C128.509161,70.6687138 128.887882,70.6241583 129.229474,70.5164825 C129.782705,70.4273715 130.157713,70.1971682 130.3545,69.8370114 C130.566139,69.6030951 130.658963,69.2800678 130.658963,68.8642166 C130.658963,68.4520783 130.658963,68.0696437 130.658963,67.6649314 L130.658963,63.9816779 L130.658963,44.0133943 C130.710944,43.4564507 130.733222,42.906933 130.733222,42.3574154 C130.733222,41.8190366 130.733222,41.2732319 130.733222,40.7125753 C130.733222,40.3152889 130.766638,39.7063639 130.733222,39.3350682 C130.710944,38.9637725 130.748074,38.8115413 130.733222,38.4513844 C130.71837,37.9538482 130.733222,37.7236448 130.733222,37.3746268 C130.733222,37.0218959 130.904018,36.4278228 131.338434,36.4872301 C131.520369,36.5057949 131.613193,36.5392115 131.702304,36.6246095 C131.817405,36.6914427 131.917655,36.7842667 132.014192,36.8770906 C132.307516,37.3226454 132.5897,37.9055797 132.834756,38.5999027 C132.871885,38.7001526 132.909015,38.7966894 132.972135,38.9117911 L142.833749,67.1673952 L142.863453,67.1525433 C142.978555,67.5164131 143.104795,67.8951348 143.268165,68.2738564 C143.483517,68.7231242 143.628322,69.1166977 143.806544,69.4248731 C143.932785,69.7553263 144.229821,70.0337981 144.627108,70.2899921 C144.823894,70.4422234 145.117218,70.5424732 145.518217,70.5944546 C145.930356,70.646436 146.364772,70.6650008 146.843743,70.6650008 C147.307863,70.6650008 147.790547,70.6650008 148.265806,70.6241583 C148.733638,70.5944546 149.149489,70.5944546 149.498507,70.5944546 L151.243597,70.5944546 C151.681726,70.6130194 151.926781,70.5944546 152.164411,70.5684639 C152.420605,70.557325 152.747345,70.4942048 152.9924,70.2862792 C153.237455,70.0783536 153.333992,69.9001316 153.445381,69.5993821 C153.564195,69.3209103 153.660732,69.1872439 153.772121,68.8679295 L154.098861,68.0696437 L164.428308,38.0615239 C164.428308,38.057811 164.439447,38.0206814 164.446873,38.0095425 C164.547123,37.7459226 164.628808,37.4823026 164.795891,37.2149697 C164.93327,36.9476368 165.059511,36.7916926 165.237733,36.4686653 C165.271149,36.4129709 165.308279,36.32386 165.382538,36.2198972 C165.464223,36.1122214 165.846658,35.9042958 165.991463,35.9488513 C166.299639,36.0528141 166.336768,36.0973696 166.407314,36.4835171 C166.485286,36.8919424 166.474148,37.6753764 166.466722,38.057811 C166.437018,38.5145047 166.537268,38.8932263 166.511277,39.3127905 C166.481573,39.7509194 166.481573,40.1593447 166.481573,40.5566311 C166.481573,41.2063986 166.481573,41.8450273 166.481573,42.4799429 C166.481573,43.0962938 166.488999,43.775765 166.55212,44.4589491 L166.55212,63.7551875 L166.55212,67.5906723 C166.55212,68.0362271 166.55212,68.4520783 166.55212,68.8642166 C166.55212,69.2800678 166.644944,69.6030951 166.852869,69.8370114 C167.038517,70.1488998 167.283572,70.3196958 167.562044,70.3642513 C167.840516,70.4273715 168.174682,70.4979177 168.568255,70.5981676 L170.610382,70.5981676 L174.215663,70.5981676 C174.746616,70.5981676 175.255291,70.5721769 175.715698,70.5498991 C176.153827,70.5276214 176.536261,70.390242 176.837011,70.1488998 C177.137761,69.8964187 177.301131,69.5065582 177.31227,68.9867442 C177.345686,68.4520783 177.364251,67.9136995 177.364251,67.3678948 L177.364251,60.8442291 L177.364251,32.9079394 L177.364251,21.6465403 C177.364251,20.7888472 177.364251,19.9534318 177.364251,19.1402942 C177.364251,18.3160177 177.078353,17.7442223 176.532549,17.4434728 Z"></path>
                    <path d="M115.502672,33.6208271 C115.469255,33.0453188 115.291033,32.6406065 114.945728,32.3918383 C114.652404,32.1430702 114.281109,32.0019778 113.850406,31.9685612 C113.423416,31.9425705 112.940731,31.9388576 112.394926,31.9388576 L108.566868,31.9388576 C108.102748,31.9388576 107.660906,31.9425705 107.237629,31.9685612 C106.818065,32.0019778 106.454195,32.1207925 106.153445,32.3138662 C105.956659,32.5180789 105.811853,32.7557081 105.737594,33.0193281 C105.704178,33.1901241 105.704178,33.290374 105.678187,33.5094384 C105.537095,34.4042611 105.221493,35.1208618 104.568013,35.2025469 C104.204143,35.2433894 103.843986,35.0725934 103.591505,34.760705 C103.398431,34.6307515 103.238774,34.4933721 103.08283,34.3411408 C102.837775,34.0960857 102.55559,33.8361787 102.25484,33.5985494 C102.050628,33.4426052 101.887258,33.3052258 101.731313,33.1715593 C101.575369,33.0490317 101.426851,32.9450689 101.270907,32.8299673 C100.628565,32.4141161 99.9119644,32.0502463 99.1322434,31.7606356 C98.560448,31.4190435 97.4985423,31.1442847 96.1767295,31.0069053 C95.4898324,30.9029425 94.7843706,30.8658129 94.0120755,30.8769518 C93.9489552,30.8769518 93.8895479,30.8769518 93.8115758,30.8769518 C93.2954747,30.8769518 92.7867996,30.8918036 92.3078281,30.9289332 C92.2744115,30.9289332 92.2224301,30.9326462 92.2001524,30.9326462 C90.5515994,31.0477478 89.2075089,31.3410714 88.5168989,31.7457838 C88.071344,31.8943021 87.636928,32.0650981 87.2507805,32.2284682 C86.5267538,32.5255048 85.8584215,32.8930875 85.208654,33.286661 C84.9673118,33.4351793 84.7036919,33.6059753 84.4586367,33.7693454 C84.2098686,33.9438544 83.9462486,34.1406412 83.7086193,34.3374279 L83.2704904,34.7829827 C83.0105834,34.9946213 82.7395375,35.2173987 82.4833435,35.4735928 C82.1900199,35.7186479 81.9858072,35.9637031 81.8224371,36.2161842 C81.480845,36.6728779 81.1429659,37.103581 80.8162257,37.5231451 C80.4969114,37.9501352 80.2035878,38.4253937 79.9473937,38.919217 C79.4535704,39.7137899 79.0488581,40.56777 78.7258308,41.4737316 C78.6144421,41.7670552 78.5030534,42.0826565 78.4065165,42.390832 C77.8681377,43.601256 77.4634254,45.3611977 77.2592127,47.4218889 C77.2220832,47.5741202 77.2109443,47.7077866 77.2220832,47.848879 L77.2220832,47.8637308 C77.1663888,48.4726558 77.1329722,49.0927197 77.1106944,49.7462001 C77.1106944,49.8724407 77.1106944,50.0023942 77.1106944,50.1323477 C77.1106944,50.188042 77.1106944,50.2400234 77.1106944,50.280866 C77.1106944,50.3922547 77.1106944,50.4813656 77.1106944,50.5779025 C77.1106944,54.0792211 77.6416473,57.1535497 78.4659238,58.9357691 C78.5067663,59.0397319 78.5698866,59.1622595 78.6181551,59.2587964 C79.5129777,61.4123115 80.6231519,63.2502253 81.9523906,64.7799637 C83.2779163,66.313415 85.0118673,67.4941354 87.1690954,68.3481155 C87.7186131,68.6005966 88.3201121,68.7788186 88.9773056,68.9013462 C89.6122212,69.0350126 90.2991183,69.1649661 91.0120061,69.3246233 C91.190228,69.3803176 91.3944407,69.3988824 91.5652367,69.3988824 C91.7323198,69.3988824 91.9068288,69.4285861 92.0516341,69.4620027 L92.6419943,69.4620027 C92.9093272,69.5325489 93.3029007,69.5548266 93.8561313,69.5548266 C94.4093619,69.5548266 94.8066483,69.5325489 95.0554164,69.4620027 C95.3041846,69.4285861 95.5678045,69.3803176 95.8574152,69.3580399 C96.1061833,69.3320492 96.4254976,69.2912067 96.7076824,69.2466512 C97.3054685,69.0981329 97.8809768,68.9384757 98.4342075,68.7973834 C98.9762992,68.6451521 99.5369557,68.4557913 100.071622,68.1958843 C100.635991,67.9545421 101.13724,67.6760703 101.579082,67.3753208 C102.035776,67.0745712 102.473905,66.751544 102.926886,66.3913871 C103.086543,66.2837113 103.216496,66.1723226 103.376153,66.0312303 C103.483829,65.9309804 103.61007,65.8047399 103.732597,65.7156289 C103.877403,65.5968143 104.03706,65.5002774 104.23756,65.4594349 C104.560587,65.3406202 104.872475,65.3517591 105.139808,65.4965644 C105.667048,65.797314 105.74502,66.4136648 105.667048,67.3381912 C105.667048,67.4310151 105.64477,67.6426537 105.64477,67.7577553 C105.615067,67.9545421 105.603928,68.1439029 105.603928,68.3406896 C105.603928,68.8939202 105.466548,69.3580399 105.444271,69.8815668 C105.410854,70.4050938 105.35516,70.8952042 105.25491,71.3481849 C105.165799,71.7009159 105.084114,72.0165172 105.035845,72.3246927 C104.983864,72.6180163 104.913318,72.9187658 104.820494,73.2195153 C104.3638,74.2220138 103.784579,75.1019846 103.090256,75.8445761 C102.648414,76.3124087 102.150878,76.7245469 101.571656,77.066139 C101.345166,77.233222 101.044416,77.4003051 100.713963,77.5339716 C100.621139,77.5785271 100.550593,77.6156566 100.476334,77.6564992 C100.298112,77.7344713 100.153307,77.7716008 100.012214,77.7975915 C99.4032893,77.9869523 98.6904015,78.1317577 97.9143935,78.2245816 C96.4626272,78.3953776 95.7683042,78.3025537 94.2719825,78.0649244 C93.6779093,77.9943783 93.098688,77.7196194 92.4860501,77.4225829 C92.229856,77.3037682 91.9959397,77.1849536 91.802866,77.0364353 C91.5058294,76.8322227 91.2087928,76.6094452 90.9488858,76.3792419 C90.9154692,76.3495382 90.8783396,76.3309734 90.848636,76.2901309 C90.8412101,76.282705 90.8226453,76.2678532 90.8226453,76.2567143 C90.5144698,75.9411129 90.235998,75.6329375 90.0280724,75.2839195 C89.9612392,75.2133733 89.9203967,75.1613919 89.8684153,75.1019846 C89.4674159,74.5561799 89.1815182,74.114338 88.9773056,73.7875978 C88.7768059,73.4608576 88.2792696,73.2009506 87.466132,73.0041638 C87.2136509,73.0041638 87.0131512,72.9744602 86.8349293,72.9596083 C86.6492814,72.9224788 86.4450688,72.9150528 86.1925877,72.9150528 L83.649212,72.9150528 C83.0848425,72.9150528 82.4907694,72.9076269 81.8781315,72.8816362 C81.2543546,72.8519326 80.6825592,72.8890621 80.1961619,73.0004509 C79.6763479,73.1007007 79.3050521,73.3049134 79.0340063,73.6316536 C78.7369697,73.9583938 78.6849883,74.4410782 78.8372195,75.0982717 C78.885488,75.1948085 78.9040528,75.332188 78.9040528,75.4621415 C78.9040528,75.6292245 78.970886,75.7703169 79.0748488,75.9188352 C79.7654588,77.9721005 80.8682071,79.6095146 82.3756677,80.8385034 C83.8794154,82.0563534 85.557672,83.0737037 87.466132,83.8719894 C87.9191128,84.0762021 88.3869454,84.254424 88.8696298,84.3732387 C89.3411754,84.4772015 89.8201468,84.5997291 90.325109,84.7074048 C90.3956552,84.7408214 90.4810532,84.7668121 90.5813031,84.7890899 C91.7768753,85.0749876 93.4885485,85.2680613 95.441564,85.294052 C95.530675,85.3126168 95.6197859,85.3126168 95.7200358,85.3126168 C95.7534524,85.3126168 95.783156,85.3126168 95.8054338,85.3126168 C95.8834059,85.3126168 95.9353873,85.3126168 96.0059335,85.3126168 C98.0072174,85.3126168 99.8080016,85.1306819 101.103824,84.8559231 C101.631064,84.7928028 102.184294,84.7074048 102.707821,84.5588865 C103.316746,84.3992294 103.888542,84.2507111 104.438059,84.0947669 C104.980151,83.9499616 105.533382,83.7568878 106.097751,83.4895549 C107.98022,82.7061209 109.606496,81.6776318 110.928308,80.4189393 C112.250121,79.1639598 113.334305,77.5970918 114.199424,75.6849189 C114.440766,75.1279753 114.637553,74.545041 114.767506,73.9324031 C114.882608,73.3012004 115.042265,72.6328681 115.246478,71.9422581 C115.298459,71.5412587 115.339301,71.1736759 115.361579,70.8506487 C115.380144,70.5276214 115.428412,70.1600386 115.465542,69.7664652 C115.465542,69.3728917 115.472968,68.9830312 115.506385,68.5968837 C115.524949,68.221875 115.532375,67.8394404 115.532375,67.4347281 L115.532375,35.3733429 C115.528662,34.7792698 115.521236,34.1963355 115.502672,33.6208271 Z M105.477687,51.6398083 C105.425706,52.4158163 105.340308,53.1584078 105.173225,53.8601567 C105.028419,54.5581926 104.846484,55.133701 104.649698,55.5755429 C104.155874,56.8379483 103.520959,57.90728 102.741238,58.8169545 C101.957804,59.722916 100.944167,60.420952 99.6966129,60.9147753 C99.2881876,61.115275 98.9020401,61.2526544 98.5047536,61.2934969 C98.5047536,61.2934969 98.4676241,61.2934969 98.4564852,61.3046358 C98.1148931,61.3900338 97.7213197,61.46058 97.3240333,61.4977096 C97.2869037,61.5051355 97.2572,61.5051355 97.2200705,61.5199873 L97.1123947,61.5199873 C96.8784784,61.5348391 96.6371362,61.5534039 96.395794,61.5534039 C96.2918312,61.5868205 96.1693036,61.5868205 96.0282112,61.5608298 C95.9799428,61.5534039 95.9353873,61.5534039 95.8945448,61.5385521 C95.5492397,61.5385521 95.2187866,61.4865707 94.9106111,61.4420152 C94.8586297,61.4420152 94.8029353,61.4420152 94.7546669,61.4420152 C94.6469911,61.4197375 94.5578802,61.3937468 94.4761951,61.371469 C93.9712329,61.2563673 93.5405299,61.1041361 93.1766601,60.937053 C92.9947252,60.855368 92.8053644,60.7811088 92.6382813,60.6882849 C91.4946905,60.0942118 90.5924419,59.3033519 89.9389615,58.3268441 C89.3003328,57.3540494 88.7396763,56.2141715 88.3052603,54.9034976 C88.2347141,54.6695813 88.1901586,54.439378 88.1418902,54.2091746 C88.0305015,53.7339161 87.9302516,53.2141021 87.8671314,52.6720104 C87.8522795,52.6385938 87.8522795,52.6126031 87.8374277,52.5828994 L87.8374277,52.5086403 C87.7891593,52.0779372 87.7408908,51.5915398 87.726039,51.0977165 C87.6666317,50.5816155 87.6666317,49.9801164 87.7037612,49.2783675 C87.726039,48.539489 87.7891593,47.934277 87.8745573,47.4330278 C87.9153998,47.0394544 87.982233,46.6644457 88.071344,46.3191407 C88.071344,46.29315 88.071344,46.285724 88.071344,46.2782981 C88.071344,46.1223539 88.1196124,45.9292802 88.2310012,45.680512 L88.2310012,45.6619472 C88.4092231,44.9824761 88.6245746,44.4181066 88.8733428,43.9799776 C89.19637,43.2819417 89.5565269,42.6284612 89.9426744,42.0009715 C90.6407104,40.8982232 91.6580606,40.0813726 92.9501697,39.528142 C93.0244289,39.5058643 93.098688,39.4761606 93.184086,39.4501699 C93.9341034,39.0528835 95.0665553,38.8041154 96.3215348,38.8041154 C97.2015057,38.8041154 98.0072174,38.9266429 98.6532719,39.1197167 C99.774585,39.353633 100.717676,39.7323546 101.43799,40.2781593 C102.75609,41.2249634 103.751162,42.5727669 104.445485,44.3327086 C104.59029,44.6371711 104.701679,44.9527724 104.824207,45.3055034 C104.917031,45.6545213 105.032132,46.0109652 105.11753,46.3525573 C105.147234,46.4899367 105.169512,46.6087513 105.169512,46.7015752 C105.21778,46.9614823 105.258623,47.2251022 105.299465,47.4924351 C105.436845,48.0642305 105.511104,48.6805814 105.522243,49.3600526 C105.548233,50.0989311 105.525956,50.8712261 105.477687,51.6398083 Z"></path>
                    <path d="M218.682038,48.1384897 C218.53352,47.069158 218.325594,46.1000762 218.084252,45.335207 C217.824345,44.2176069 217.37879,42.9552015 216.78843,41.6445276 C216.628773,41.2361023 216.439412,40.8091122 216.212922,40.4229647 C216.164653,40.3412796 216.108959,40.2781593 216.071829,40.2039002 C215.440627,39.0306057 214.746304,37.9761259 214.070545,37.1147198 C214.029703,37.0701644 213.996286,37.010757 213.966583,36.9624886 C213.944305,36.9624886 213.936879,36.9550627 213.936879,36.9550627 C213.394787,36.2941563 212.860121,35.7594905 212.362585,35.3733429 C212.303178,35.3139356 212.21778,35.2433894 212.158373,35.2025469 C211.712818,34.8201123 211.256124,34.4896591 210.806856,34.1851966 C209.347664,33.1901241 207.713963,32.3769865 205.876049,31.7494967 C205.876049,31.7494967 205.86491,31.7494967 205.838919,31.7420708 C204.572801,31.2185439 202.426712,30.8806648 199.998438,30.8806648 C199.950169,30.8806648 199.898188,30.8918036 199.846207,30.8918036 C199.679123,30.8918036 199.504615,30.8918036 199.296689,30.8918036 C199.296689,30.8918036 199.281837,30.8918036 199.281837,30.8918036 C198.806579,30.9066555 198.364737,30.9289332 197.922895,30.9586369 C197.655562,30.9772016 197.358525,30.9957664 197.057776,31.0514608 C196.990943,31.0514608 196.935248,31.0588867 196.883267,31.0737385 C196.051564,31.1925532 195.312686,31.3447844 194.729752,31.5267193 C194.02429,31.6603858 193.326254,31.8757373 192.628218,32.161635 C187.474633,34.326289 183.821083,37.9909777 181.671281,43.2039696 C181.474495,43.6532374 181.307411,44.1433478 181.170032,44.6371711 C180.713338,45.9998263 180.394024,47.6929348 180.26407,49.5939689 L180.234367,49.7350613 L180.234367,49.8613018 C180.208376,50.2363105 180.193524,50.622458 180.193524,51.0048926 C180.186098,51.0828647 180.186098,51.1608368 180.186098,51.2499478 C180.186098,51.3464847 180.186098,51.4504475 180.186098,51.5358455 C180.186098,54.7289886 180.735616,57.5768268 181.58217,59.4444442 C181.715837,59.9382675 181.90891,60.4358038 182.120549,60.9222012 C182.915122,62.6784299 183.936185,64.2155942 185.191165,65.5522588 C186.449857,66.8666456 187.864494,68.0325142 189.475917,69.0350126 C189.876917,69.2949196 190.311333,69.4917063 190.790304,69.6699283 C191.217294,69.8221595 192.880699,70.5127696 193.619577,70.7392599 C194.209938,70.9397596 194.900548,71.0994168 195.672843,71.2405092 C195.73225,71.255361 195.784231,71.2739258 195.8325,71.2739258 C196.719897,71.4707125 197.585016,71.5264069 198.227357,71.5375457 C198.672912,71.5709624 199.129606,71.5895271 199.590013,71.5895271 C199.697688,71.5895271 199.816503,71.5895271 199.957595,71.5895271 C199.991012,71.5895271 200.046706,71.5895271 200.102401,71.5895271 C205.163161,71.2887776 205.961447,70.8060932 208.508536,69.9298353 C210.168227,69.3097714 210.457838,69.0350126 211.623707,68.2033102 C213.012353,67.1970988 214.259906,65.8752861 215.377506,64.2267331 C215.763654,63.6846413 216.123811,63.1276978 216.42456,62.5744671 C216.717884,62.0286624 217.003782,61.4048856 217.248837,60.6919979 C217.341661,60.4469427 217.386216,60.1350543 217.360226,59.7971752 C217.3528,59.6560828 217.330522,59.5335552 217.282253,59.4407313 C217.200568,58.9728987 216.873828,58.6498714 216.487681,58.6498714 L214.835415,58.6498714 C214.690609,58.6164548 214.530952,58.6164548 214.360156,58.6313066 C214.304462,58.6350196 214.233916,58.6350196 214.170795,58.6498714 L211.683114,58.6498714 C211.553161,58.6350196 211.415781,58.6350196 211.282115,58.6313066 C211.06305,58.6313066 210.851412,58.6313066 210.647199,58.6498714 L210.179366,58.6498714 C209.871191,58.6498714 209.050627,58.9172043 208.549378,59.5298423 C208.382295,59.7340549 208.170657,60.0013878 208.010999,60.1907486 C207.732528,60.5323407 207.57287,60.7179886 207.279547,61.0447288 C206.88226,61.4717189 206.811714,61.4902836 206.184224,61.8987089 C205.545596,62.2922824 204.9738,62.6227356 204.48369,62.8640778 C204.472551,62.8752167 204.472551,62.8789296 204.461412,62.8826426 C203.908182,63.1685403 203.150738,63.3950307 202.244777,63.5472619 C202.122249,63.5584008 201.98487,63.6140951 201.858629,63.625234 L201.654417,63.625234 C201.320251,63.6586506 200.974946,63.6809284 200.644492,63.6920672 C200.262058,63.7254839 199.842494,63.7254839 199.378374,63.6920672 L199.344957,63.6920672 C197.811506,63.625234 196.489693,63.3281974 195.654278,62.8974944 C195.490908,62.8232353 195.34239,62.7378373 195.186445,62.6450133 C194.172808,62.0435143 193.3968,61.3603301 192.821292,60.5731832 C192.245783,59.7934622 191.692553,58.857797 191.295266,57.6547989 C191.272988,57.6139564 191.18759,57.3763271 191.165313,57.3317716 C191.079915,57.0458739 191.057637,56.8082447 190.99823,56.3738287 C190.990804,56.169616 190.968526,55.9876811 190.968526,55.8168851 C190.938822,55.6423761 190.953674,55.4493023 190.99823,55.2636545 C191.042785,54.9963216 191.128183,54.788396 191.239572,54.6918591 C191.272988,54.6213129 191.310118,54.5767574 191.358386,54.5396278 C191.454923,54.3354152 191.696266,54.1386285 192.100978,53.9344158 C192.34232,53.8453048 192.639357,53.7821846 192.96981,53.7821846 C193.29655,53.7821846 193.634429,53.7821846 193.990873,53.7821846 L212.306891,53.7821846 C212.748733,53.7821846 213.261121,53.7970364 213.840342,53.8193141 C214.419563,53.8564437 214.998785,53.8564437 215.566867,53.8193141 C216.142376,53.7970364 216.665903,53.7524809 217.137448,53.6745088 C217.623845,53.5965367 217.995141,53.4628703 218.221632,53.2660835 C218.481539,53.1175652 218.656048,52.7796861 218.752584,52.2858628 C218.830557,51.9145671 218.904816,50.7152819 218.86026,50.3996806 C218.930806,49.5345616 218.837982,49.3043582 218.682038,48.1384897 Z M207.494898,46.5010756 C207.24613,46.9057879 206.741168,47.1100005 205.976299,47.1322783 C205.181726,47.1619819 204.44656,47.1768338 203.75595,47.1768338 L195.409223,47.1768338 C194.759455,47.1768338 194.094836,47.1768338 193.385661,47.1768338 C192.676486,47.1768338 192.134395,47.0505932 191.744534,46.8018251 C191.480914,46.5976124 191.317544,46.3414184 191.250711,46.0443818 C191.176452,45.7436323 191.165313,45.4317439 191.217294,45.1161425 C191.26185,44.7894023 191.358386,44.4515232 191.480914,44.1396348 C191.603442,43.8017557 191.703691,43.5418487 191.811367,43.341349 C192.862134,41.2992226 194.477271,39.9105766 196.693906,39.2199666 C196.935248,39.1122908 197.228572,39.0343187 197.54046,38.9600596 C197.882052,38.8635227 198.617218,38.7595599 198.832569,38.7335692 C199.047921,38.7112914 202.166805,38.3325698 204.208931,39.9402802 C205.267124,40.7831215 206.280761,41.7002219 206.986223,43.0480254 C207.123603,43.3933304 207.342667,43.9317092 207.613713,44.6705877 C207.884759,45.3834755 207.862481,45.9924004 207.494898,46.5010756 Z"></path>
                    <path d="M265.936844,0 C241.323651,0 221.366506,19.93858 221.366506,44.551773 C221.366506,69.1612532 241.323651,89.110972 265.936844,89.110972 C290.535185,89.110972 310.477478,69.1612532 310.477478,44.551773 C310.477478,19.93858 290.531472,0 265.936844,0 Z M250.639461,70.3271217 C250.457526,70.6724267 249.993406,70.9508985 249.299083,71.1513982 C248.950065,71.2627869 248.567631,71.2813517 248.166631,71.2182314 C247.776771,71.1811019 247.360919,71.1513982 246.967346,71.1513982 L242.530362,71.1513982 C241.98827,71.1513982 241.479595,71.1328334 240.993198,71.0771391 C240.521652,71.0362965 240.135505,70.8840653 239.838468,70.6278712 C239.593413,70.3753901 239.437469,70.0152333 239.381774,69.5139841 C239.344645,69.0090219 239.314941,68.478069 239.314941,67.9285514 L239.314941,61.4011727 L239.314941,33.984697 L239.314941,23.0240474 C239.314941,22.3297244 239.314941,21.5054479 239.266673,20.5586438 C239.255534,19.5969879 239.370636,18.9397945 239.615691,18.5350822 C239.808765,18.2194808 240.131792,17.9818516 240.588486,17.7776389 C240.733291,17.7776389 240.878096,17.7665 240.989485,17.7330834 C241.119438,17.7070927 241.212262,17.6996668 241.338503,17.6996668 L247.78791,17.6996668 C248.352279,17.6996668 248.864667,17.7070927 249.369629,17.7330834 C249.85974,17.7665 250.242174,17.9521479 250.490942,18.2974529 C250.743423,18.6501839 250.880803,19.1068776 250.903081,19.6415434 C250.932784,20.2059129 250.943923,20.7999861 250.943923,21.4571795 L250.943923,27.9882711 L250.943923,54.0420916 L250.943923,66.3319798 C250.943923,67.004025 250.947636,67.7243387 250.97734,68.5411893 C251.010756,69.3246233 250.899368,69.9298353 250.639461,70.3271217 Z M294.656568,47.7263514 L294.656568,54.4059614 L294.656568,66.573322 C294.656568,67.527552 294.645429,68.4520783 294.623151,69.3171974 C294.589735,70.1934552 294.214726,70.7615377 293.538968,70.999167 C293.219653,71.0957038 292.881774,71.1513982 292.480775,71.1513982 C292.083489,71.1513982 291.67135,71.1513982 291.270351,71.1513982 L287.208376,71.1513982 C286.621729,71.1513982 286.075924,71.1105557 285.611804,71.0474354 C285.136546,70.9583244 284.76525,70.7615377 284.520195,70.3976679 C284.315982,70.1043443 284.208306,69.7219097 284.182316,69.2392253 C284.152612,68.7713927 284.145186,68.2515786 284.145186,67.702061 L284.145186,62.4408007 L284.145186,51.2610867 C284.145186,49.408321 284.067214,47.6817959 283.91127,46.1075021 C283.777603,44.5406342 283.309771,43.2039696 282.570892,42.0975084 C281.976819,41.2546671 281.156256,40.6234644 280.09435,40.2001872 C279.396314,39.8511693 278.278714,39.6246789 277.016308,39.6246789 C275.54969,39.6246789 274.272433,39.9402802 273.637517,40.396974 C273.117703,40.6011866 272.683287,40.8425288 272.282288,41.1284265 C270.682003,42.2757303 269.731486,43.9539869 269.438163,46.1483446 C269.137413,48.3649801 268.97033,50.8378095 268.97033,53.574259 L268.97033,62.9717536 L268.97033,67.5498297 C268.97033,68.0028105 268.97033,68.4520783 268.97033,68.9013462 C268.97033,69.346901 268.910923,69.7256226 268.754979,70.0226592 C268.513636,70.5796028 268.105211,70.906343 267.548268,70.995454 C266.991324,71.0919909 266.326705,71.1476852 265.520993,71.1476852 L261.770906,71.1476852 C261.221389,71.1476852 260.668158,71.1291205 260.126066,71.0734261 C259.569123,71.0325836 259.179262,70.8580746 258.934207,70.5461862 C258.57405,70.1006313 258.421819,69.4582897 258.436671,68.6043096 C258.458948,67.7540424 258.477513,66.9446177 258.477513,66.2020263 L258.477513,55.9802552 L258.477513,39.4798736 L258.477513,35.6406758 C258.477513,35.0911582 258.484939,34.586196 258.492365,34.1406412 C258.525782,33.6839474 258.6743,33.3163647 258.930494,33.0007633 C259.030744,32.8633839 259.179262,32.7482822 259.413178,32.677736 C259.62853,32.6109028 259.881011,32.5255048 260.126066,32.4883752 L260.497362,32.4883752 C260.753556,32.4401068 261.013463,32.421542 261.280796,32.421542 C261.562981,32.421542 261.830314,32.421542 262.082795,32.421542 L265.227669,32.421542 C265.621243,32.421542 266.018529,32.4289679 266.386112,32.4512456 C266.761121,32.4735234 267.110139,32.5255048 267.410888,32.6517453 C267.763619,32.7928377 267.990109,33.0044763 268.127489,33.3200776 C268.231452,33.5725587 268.231452,33.8695953 268.320563,34.2037614 C268.528488,35.0688804 268.758692,36.0119716 269.408459,36.0973696 C269.690644,36.1270732 269.991393,35.9971197 270.232736,35.7594905 C270.355263,35.6815184 270.670865,35.3547781 270.767401,35.2322506 C271.108993,34.8052605 271.784752,34.1926226 272.204316,33.9401415 C272.493926,33.7285029 272.716704,33.5799846 272.939481,33.4426052 C273.674647,32.9487819 274.743979,32.4698104 276.036088,32.1022277 C276.073217,32.0948018 276.128912,32.072524 276.188319,32.0502463 C276.607883,31.9054409 277.020021,31.812617 277.465576,31.7680615 C277.651224,31.727219 277.851724,31.6938024 278.059649,31.6640987 C279.715628,31.381914 281.263931,31.3113678 282.459504,31.463599 C284.568463,31.5898396 286.37296,32.0019778 287.895273,32.7334304 C289.90027,33.6765215 291.481989,35.0763064 292.621867,36.929072 C292.985737,37.4785896 293.256783,38.0763757 293.460996,38.6964396 C293.657782,39.3053646 293.865708,39.9551321 294.062495,40.5974737 C294.147893,41.0133249 294.222152,41.3771947 294.248143,41.7410645 C294.274133,42.0826565 294.333541,42.4353875 294.426364,42.7806925 C294.426364,43.0925809 294.463494,43.2819417 294.50805,43.3747656 C294.623151,44.0839404 294.660281,44.8079671 294.660281,45.5654104 C294.656568,46.3154277 294.656568,47.0283155 294.656568,47.7263514 Z"></path>
                </g>
                <g transform="translate(0.000000, 17.851829)" id="Shape">
                    <path d="M38.8078283,32.109723 C38.9006522,32.4104725 38.9526336,32.9339995 38.9526336,33.6506002 C38.9526336,34.3783398 38.9303559,34.8907279 38.8820875,35.1914774 C38.8820875,35.4365326 38.8746615,35.6444582 38.8523838,35.8152542 C38.8152542,36.0009021 38.8041154,36.2125406 38.8041154,36.4613088 C38.7001526,36.8548822 38.6518841,37.2410298 38.6518841,37.6123255 C38.6518841,37.998473 38.5999027,38.3883335 38.4996529,38.78562 C38.4996529,38.9824067 38.4625233,39.3388506 38.3622735,39.8326739 C38.1989033,40.4230341 38.0615239,41.0468109 37.9464222,41.6743006 C37.8164687,42.2869386 37.6271079,42.8772988 37.3820528,43.4231035 C36.4760912,45.6768685 35.3510652,47.6298839 34.0106877,49.2821499 C32.6554583,50.919564 30.8880907,52.2116731 28.693733,53.1584772 C28.2481781,53.3664028 27.7803455,53.518634 27.2939481,53.6448745 C26.8335414,53.774828 26.3248663,53.9047815 25.7679227,54.0644387 C25.4634603,54.1646885 25.1589978,54.2166699 24.8359705,54.2166699 C24.5166562,54.2166699 24.1936289,54.2315218 23.8854535,54.2835032 L23.22826,54.2835032 C22.9312235,54.3948919 22.5190852,54.4283085 22.021549,54.3948919 C21.5165868,54.3763271 21.1267263,54.3169198 20.8222638,54.2166699 L20.372996,54.2166699 C20.1242278,54.1646885 19.8457561,54.123846 19.5450065,54.1015683 C19.2553959,54.0904294 18.9472204,54.038448 18.6538968,53.9901796 C17.7256575,53.7451244 16.8234089,53.4852174 16.036262,53.2364493 C15.2379762,52.995107 14.4842459,52.6312372 13.778784,52.1893953 C13.4928863,51.9888956 13.1958498,51.7995348 12.9285169,51.5916092 C12.653758,51.3948225 12.3901381,51.1646192 12.133944,50.915851 C11.9891387,50.8193141 11.8443334,50.7227773 11.699528,50.6113885 C11.532445,50.5148517 11.3876396,50.4405925 11.2316954,50.3923241 C10.7935665,50.2400928 10.5113817,50.3403427 10.4111319,50.6967866 C10.1660767,51.0532304 10.0138455,51.4542298 9.93216042,51.9294883 C9.84304945,52.4047468 9.66482751,52.7611907 9.36407798,53.0210977 C9.0670414,53.2141715 8.71431047,53.3255602 8.30959814,53.3515509 C7.91602468,53.3738287 7.46304391,53.3886805 6.9692206,53.3886805 L3.37136511,53.3886805 C3.02234713,53.3886805 2.65105142,53.3961064 2.28718161,53.4183842 C1.90845998,53.4443749 1.58171975,53.4109582 1.27725727,53.3144214 C0.575508361,53.0693662 0.189360816,52.6015336 0.118814629,51.9257754 C0.044555486,51.2500172 0.00371295717,50.4962869 0.00371295717,49.6423067 L0.00371295717,3.95436877 C0.00371295717,3.3974252 0.00371295717,2.82191684 0.00371295717,2.22784369 C0.00371295717,1.62263167 0.126240544,1.15108611 0.371295717,0.809494054 C0.579221318,0.449337208 0.928239292,0.230272735 1.42948851,0.126309935 C1.53716427,0.0780414916 1.63370115,0.0669026201 1.76365465,0.0928933203 C1.89732111,0.11888402 1.99757096,0.104032192 2.09410784,0.0557637486 L6.82812823,0.0557637486 C7.71181204,0.0557637486 8.49895896,0.0928933203 9.13016167,0.170865421 C9.77992918,0.252550478 10.2217711,0.63127211 10.4111319,1.32930806 C10.5707891,1.83055727 10.6079186,2.48403774 10.5707891,3.3194531 C10.5113817,4.14372959 10.492817,4.84919145 10.492817,5.44697756 L10.492817,13.6117704 C10.492817,14.165001 10.492817,14.7070927 10.492817,15.2603233 C10.492817,15.813554 10.5299465,16.2850995 10.6376223,16.6898119 C10.6821778,16.9422929 10.752724,17.1576445 10.7898535,17.3321534 C10.8418349,17.4955236 10.9680755,17.6180511 11.1574363,17.6626066 C11.265112,17.7628565 11.3913526,17.7999861 11.5695745,17.7999861 C11.7589353,17.7999861 11.8963148,17.7888472 11.9854257,17.7331528 C12.3381567,17.5326531 12.6611839,17.3321534 12.9619335,17.0982371 C13.262683,16.8791727 13.5894232,16.6378305 13.9347282,16.3890623 C14.5919217,15.9435075 15.256541,15.5573599 15.9620029,15.2269067 C16.6563259,14.9001665 17.424908,14.6254077 18.2826011,14.3617877 C18.6873134,14.2095565 19.0771739,14.1241585 19.4781733,14.1018807 C19.8754597,14.0870289 20.287598,14.0164827 20.6811714,13.9088069 C21.0301894,13.8085571 21.4014851,13.7602887 21.8061974,13.7602887 C22.192345,13.7602887 22.5933444,13.7602887 23.0129085,13.7602887 L23.748074,13.7602887 C23.8891664,13.8085571 24.0748143,13.819696 24.275314,13.7974182 C24.4832396,13.7788534 24.6763133,13.7937053 24.8693871,13.8456867 C25.4226177,13.986779 25.9387188,14.1018807 26.4139773,14.1761399 C26.8855228,14.2615379 27.3422166,14.3989173 27.7989103,14.5845651 C30.0898049,15.5350822 31.9648483,16.764071 33.4129015,18.2603927 C34.8646678,19.7604274 36.0825178,21.6317578 37.0887291,23.870671 C37.3374973,24.479596 37.5417099,25.0996598 37.7310707,25.7531403 C37.9055797,26.3954819 38.0800887,27.0712401 38.2954402,27.7804149 C38.3845512,28.1294329 38.4550974,28.463599 38.4736622,28.7792004 C38.4959399,29.1022277 38.5516343,29.4698104 38.6555971,29.8745228 C38.7558469,30.1307168 38.7855506,30.3980497 38.7706987,30.6950863 C38.7335692,30.9995488 38.7558469,31.2965854 38.8078283,31.6010478 L38.8078283,32.109723 Z M27.7135123,39.1457768 C27.8657435,38.6556665 28.0105489,38.0356026 28.1219376,37.2781593 C28.2518911,36.531855 28.3224373,35.7744117 28.348428,35.0021166 C28.3744187,34.2261086 28.3744187,33.4575264 28.348428,32.6778054 C28.3187243,31.9092233 28.2481781,31.237178 28.0922339,30.6913733 C27.9362897,30.1901241 27.8323269,29.7148656 27.7914844,29.2581719 C27.743216,28.8200429 27.6169754,28.4004788 27.4053369,27.9994794 C26.7110139,26.2432506 25.7307932,24.7654937 24.4572489,23.5402178 C23.1837046,22.3186549 21.327226,21.7097299 18.8729613,21.7097299 C18.6798875,21.7097299 18.5016656,21.7208688 18.3531473,21.7431466 C18.1934901,21.7691373 18.03012,21.787702 17.8259074,21.787702 C17.4694635,21.876813 17.1427232,21.9584981 16.8605385,22.0364702 C16.5523631,22.1218682 16.2553265,22.2072662 15.9545769,22.311229 C14.5028107,22.9535706 13.3963495,23.8558192 12.657471,25.0328266 C11.9111666,26.209834 11.2836768,27.5464986 10.7861406,29.0502463 C10.6339093,29.4438197 10.5447984,29.8596709 10.5225206,30.282948 C10.492817,30.7025122 10.4334096,31.1109375 10.3294468,31.5193628 C10.2886043,31.6678811 10.2663266,31.9166492 10.2663266,32.2545283 C10.2143452,32.4661669 10.1920674,32.6703795 10.2217711,32.8597403 C10.2366229,33.063953 10.2366229,33.2644527 10.1920674,33.4538135 C10.0843917,33.8696647 10.0621139,34.4117564 10.0992435,35.1135053 C10.1586508,35.8041154 10.2403359,36.2979387 10.3294468,36.6098271 C10.4334096,37.051669 10.492817,37.478659 10.5225206,37.8685195 C10.5447984,38.2806578 10.6301964,38.6742312 10.7861406,39.0752306 C11.2242695,40.4787284 11.7812131,41.6854395 12.4012769,42.7102157 C13.0324797,43.7275659 13.9050246,44.592685 15.0486154,45.2981468 C15.8691789,45.7919701 16.6711777,46.1447011 17.5251578,46.3452008 C17.6291206,46.3452008 17.7405093,46.3563396 17.8741758,46.3897562 C17.9781386,46.412034 18.1266569,46.4231729 18.2751752,46.4231729 C18.4311194,46.4565895 18.6798875,46.5048579 19.0251925,46.5345616 C19.3667846,46.5494134 19.6712471,46.5419875 19.9311541,46.4862931 C20.4212644,46.3897562 20.889097,46.2969323 21.3012353,46.2263861 C21.7393642,46.1632659 22.1366506,46.0481642 22.5487889,45.89222 C23.9411478,45.2461654 25.0216183,44.3439168 25.7976264,43.1891872 C26.5773474,42.0493093 27.215976,40.7015059 27.7135123,39.1457768 Z"></path>
                    <path d="M40.3524185,14.5771392 L46.0406689,14.5771392 C46.545631,14.5771392 47.0357414,14.5771392 47.5369906,14.5771392 C48.0456657,14.5771392 48.4652299,14.684815 48.8216738,14.8741758 C49.4268858,15.2714622 49.8241722,15.9063779 50.0543756,16.7566451 C50.280866,17.6106252 50.5110693,18.3829203 50.7635504,19.0809563 C51.0160315,19.6750294 51.235096,20.3099451 51.3984661,20.9559996 C51.5878269,21.5946283 51.7920395,22.222118 52.0296688,22.8161912 C52.4269552,23.9783468 52.8168157,25.0996598 53.1621207,26.2321118 C53.5111387,27.3571378 53.8898603,28.463599 54.2871467,29.5737732 L55.8651535,34.270664 C56.002533,34.7310707 56.1361994,35.1989033 56.2698659,35.6741619 C56.3961064,36.1419945 56.5594765,36.6061141 56.7599762,37.051669 C56.8936427,37.4489554 57.0681517,37.9056491 57.2500866,38.3994724 C57.4134567,38.9007216 57.7884654,39.1234991 58.3305571,39.0752306 C58.4308069,38.9749808 58.5199179,38.9118605 58.5830382,38.8747309 C58.6721492,38.871018 58.7538342,38.8004718 58.8429452,38.7113608 C58.9951764,38.4625927 59.1325558,38.1915468 59.2253798,37.9539176 C59.3367685,37.7088624 59.4295924,37.4526683 59.5409811,37.2076132 C59.7823233,36.6618085 59.9791101,36.0677353 60.1313413,35.4476715 C60.2835726,34.8164687 60.4469427,34.2075438 60.6474424,33.6134706 C61.3603301,31.5156498 62.0360883,29.4401068 62.6858559,27.3905544 C63.3281974,25.3372891 63.9928168,23.2765979 64.6908527,21.1676382 C64.9470468,20.4844541 65.1586853,19.7789922 65.3294814,19.1143729 C65.5002774,18.4460406 65.7156289,17.7814213 65.964397,17.1353667 C66.1203412,16.7343673 66.2502947,16.3482198 66.3876741,15.9657852 C66.4953499,15.5944895 66.744118,15.2788881 67.096849,15.033833 C67.3827467,14.7887778 67.7540424,14.6513984 68.2107361,14.6254077 C68.6674298,14.6142688 69.172392,14.5845651 69.7070579,14.5845651 L74.2814211,14.5845651 C74.7863833,14.5845651 75.243077,14.6254077 75.7183355,14.6625372 C76.1564645,14.7070927 76.5017695,14.8704628 76.7691024,15.119231 C77.066139,15.4682489 77.1032685,15.9175168 76.9139077,16.4633215 C76.806232,16.8680338 76.6874173,17.2690332 76.5351861,17.6663196 C76.3792419,18.0598931 76.2381495,18.4794572 76.0822053,18.8656048 C75.3878823,20.6069817 74.7009852,22.396627 74.0549307,24.2271149 C73.4088762,26.0464639 72.7479698,27.8398222 72.035082,29.5886251 C71.7231936,30.3200776 71.4595736,31.0886598 71.2145185,31.8535289 C70.9583244,32.6369629 70.6798526,33.3981191 70.3939549,34.1481365 C70.1414738,34.8387465 69.8778539,35.5182177 69.6439376,36.1716981 C69.3877435,36.8177527 69.1389754,37.4935109 68.8827814,38.1952598 C67.8914218,40.686654 66.9631825,43.1966131 66.0683598,45.717711 C65.1995279,48.231383 64.2787145,50.7302032 63.2725031,53.1659031 C63.1165589,53.5260599 63.0051702,53.8490872 62.9457629,54.1498367 C62.8603648,54.4468733 62.7452632,54.7550487 62.5930319,55.0409464 C62.1994585,55.9914635 61.8170239,56.9122768 61.4828577,57.8145254 C61.1227009,58.716774 60.7551181,59.585606 60.3541188,60.3987436 C59.9494064,61.2230201 59.4815738,61.9841763 58.9320562,62.6896382 C58.3751126,63.3802482 57.6993544,64.007738 56.8936427,64.5572557 C56.2661529,65.0139494 55.5421263,65.3703933 54.7661182,65.6414391 C54.001249,65.9273369 53.1584078,66.1798179 52.2561592,66.4397249 C51.8662987,66.5362618 51.4652993,66.5808173 51.0457351,66.5808173 C50.6595876,66.5808173 50.2623012,66.6290858 49.8613018,66.7330486 L47.9157122,66.7330486 C47.5184258,66.7330486 47.0320284,66.7330486 46.4899367,66.7330486 C45.944132,66.7330486 45.4057532,66.7070579 44.8785133,66.6513635 C44.3698381,66.6030951 43.8723019,66.5548266 43.4564507,66.4768545 C43.0405995,66.3914565 42.736137,66.2874937 42.5244984,66.1241236 C42.2794433,65.9384757 42.1234991,65.6897076 42.0529529,65.4186617 C41.9638419,65.1439029 41.8635921,64.7985979 41.7707681,64.4124503 L41.7707681,62.6116661 C41.7707681,61.7613989 41.7707681,60.8591503 41.7707681,59.9123462 C41.7707681,58.9618292 42.0752306,58.3603301 42.6767297,58.1264138 C42.9254978,58.0150251 43.255951,57.9481919 43.6829411,57.9259142 C44.1099311,57.9147753 44.470088,57.9333401 44.7745505,58.0521547 L46.6273161,58.0521547 L47.5295647,58.0521547 C47.7300644,57.9853215 47.9305641,57.9704696 48.1459156,57.9704696 C48.3389894,57.9704696 48.5357761,57.9259142 48.7399887,57.8182384 C50.280866,57.3726835 51.2796514,56.3441944 51.7326322,54.7587617 C51.8254561,54.558262 51.9479837,54.2426606 52.0222429,53.8528001 C52.1299186,53.4480878 52.1299186,53.1064958 52.0222429,52.8094592 C51.9479837,52.560691 51.8811505,52.30821 51.8811505,52.0520159 C51.8811505,51.8143867 51.8254561,51.5581926 51.7326322,51.3131374 C51.4281697,50.314352 51.1014295,49.3192794 50.7561245,48.3427717 C50.4219583,47.3774028 50.0246719,46.412034 49.6385244,45.4763688 C49.237525,44.5109999 48.8736552,43.5641958 48.5506279,42.6173918 C48.2276006,41.6780136 47.8711568,40.7237836 47.4701574,39.7732666 C47.2102504,39.1643416 47.0060377,38.5702684 46.8241028,37.9761953 C46.6570198,37.3746962 46.4379553,36.7769101 46.1929001,36.182837 C45.3946143,34.2855159 44.6594488,32.3362134 43.9799776,30.3312165 C43.3153583,28.3447844 42.5690539,26.3917689 41.7633422,24.4981608 C41.6742312,24.305087 41.6148239,24.130578 41.6148239,24.0154763 C41.6148239,23.874384 41.5776944,23.7407175 41.4663056,23.5921992 C41.0727322,22.6973766 40.7237142,21.787702 40.4563813,20.8520368 C40.1779095,19.9423623 39.8363174,19.0549656 39.4501699,18.2046984 C39.3350682,17.9002359 39.1865499,17.4769588 38.9749114,16.8977375 C38.7372821,16.3222291 38.7112914,15.8358317 38.8486708,15.4311194 C38.9934762,15.03012 39.3202164,14.7776389 39.8177527,14.681102 C39.9291414,14.6439725 40.0034005,14.6365465 40.0813726,14.6439725 C40.1630577,14.6476854 40.2484557,14.6439725 40.3524185,14.5771392 Z"></path>
                </g>
            </g>
            <path d="M155.554341,106.131168 C146.94028,100.918176 136.454889,101.657054 128.776493,107.089111 C127.209626,108.195572 125.160073,108.321812 123.500381,107.363869 L99.2362062,93.3548821 C98.8277809,93.1209658 98.8277809,92.5306056 99.2362062,92.2966893 L123.363002,78.365674 C125.033833,77.4003051 127.098237,77.5376845 128.665105,78.6589976 C136.336074,84.1504612 146.862308,84.9301822 155.509785,79.7246163 C166.507564,73.1007007 170.498993,58.4902143 164.391179,47.1991115 C157.819244,35.0466027 142.566416,30.7878408 130.684953,37.6493857 C122.204559,42.5467762 117.778714,51.7586229 118.565861,60.9110623 C118.729231,62.8158094 117.815844,64.6425843 116.163578,65.6005272 L91.9105417,79.6020887 C91.5021164,79.836005 90.9934413,79.5426814 90.9934413,79.0748488 L90.9934413,51.056874 C90.9934413,49.1409881 92.1296062,47.4256019 93.8709831,46.6236031 C103.08283,42.3834061 109.201783,32.5774862 107.924526,21.5165868 C106.639843,10.399993 97.5839403,1.39235894 86.4636336,0.155944201 C71.7194806,-1.48146991 59.2365186,10.0138455 59.2365186,24.4275452 C59.2365186,34.2705947 65.0621484,42.7547018 73.4497187,46.6198902 C75.1948085,47.4218889 76.3346864,49.1372752 76.3346864,51.056874 L76.3346864,79.0748488 C76.3346864,79.5463943 75.8260113,79.839718 75.417586,79.6020887 L51.1645498,65.5968143 C49.5122838,64.6425843 48.5951834,62.8195223 48.7622665,60.9184882 C49.6348114,50.8526614 44.1990421,40.7125753 33.9995488,36.320147 C23.7406481,31.901728 11.439621,35.2396765 4.81570545,44.2361717 C-3.98029008,56.1844679 -0.263619959,72.7479698 12.219342,79.9548196 C20.7888472,84.9004786 31.1034422,84.0650632 38.65931,78.6589976 C40.2298909,77.5339716 42.2942951,77.3965922 43.9688388,78.361961 L68.0956344,92.2892633 C68.5040597,92.5231796 68.5040597,93.1135398 68.0956344,93.3474561 L43.8314594,107.356444 C42.1717675,108.314386 40.1185022,108.188146 38.5553472,107.081685 C30.8806648,101.653341 20.3915608,100.914463 11.7775001,106.123742 C0.81313762,112.758796 -3.15601359,127.350718 2.94066208,138.623256 C9.51259626,150.772052 24.7654243,155.030814 36.6468872,148.169269 C45.1718369,143.245888 49.6051078,133.963495 48.7585535,124.762787 C48.5840445,122.850614 49.493719,121.005274 51.1571238,120.047331 L75.4212989,106.038344 C75.8297242,105.804427 76.3383994,106.097751 76.3383994,106.565584 L76.3383994,134.583558 C76.3383994,136.499444 75.2022345,138.214831 73.4608576,139.016829 C64.2490108,143.257026 58.1300574,153.062946 59.4073147,164.123846 C60.6919979,175.240439 69.7479004,184.248074 80.8682071,185.484488 C95.61236,187.121902 108.095322,175.626587 108.095322,161.212887 C108.095322,151.369838 102.269692,142.885731 93.882122,139.020542 C92.1370321,138.218544 90.9971543,136.503157 90.9971543,134.583558 L90.9971543,106.565584 C90.9971543,106.094038 91.5058294,105.800714 91.9142547,106.038344 L116.17843,120.047331 C117.841835,121.008987 118.755222,122.850614 118.577,124.762787 C117.730446,133.963495 122.163717,143.245888 130.688666,148.169269 C142.570129,155.030814 157.822957,150.772052 164.394892,138.623256 C170.487854,127.354431 166.518703,112.766222 155.554341,106.131168 Z" id="Shape" fill="#00C0F3"></path>
        </g>
    </g>
</svg>