<?xml version="1.0" encoding="UTF-8"?>
<svg width="1667px" height="292px" viewBox="0 0 1667 292" version="1.1" xmlns="http://www.w3.org/2000/svg" xmlns:xlink="http://www.w3.org/1999/xlink">
    <!-- Generator: Sketch 51.3 (57544) - http://www.bohemiancoding.com/sketch -->
    <title>Artboard</title>
    <desc>Created with Sketch.</desc>
    <defs></defs>
    <g id="Artboard" stroke="none" stroke-width="1" fill="none" fill-rule="evenodd">
        <g id="LMI_GoToMeeting_Orange_HEX" transform="translate(235.000000, 0.000000)" fill-rule="nonzero">
            <g id="Group">
                <g transform="translate(199.518715, 29.558328)" fill="#53565A" id="Shape">
                    <path d="M99.2383919,56.8037171 L63.0479139,56.8037171 C57.9712711,56.8037171 55.0228278,59.5895895 55.0228278,64.6662324 L55.0228278,68.2686536 C55.0228278,73.3452965 57.9712711,76.1311689 63.0479139,76.1311689 L82.8630782,76.1311689 L82.8630782,93.8181335 C76.9661917,96.9291476 69.5987784,98.4033692 62.8816483,98.4033692 C39.3014921,98.4033692 26.0371923,81.2078118 26.0371923,61.8840548 C26.0371923,41.5774833 41.2671209,25.3647403 61.7362631,25.3647403 C68.2871276,25.3647403 74.6754213,25.6935767 83.3507906,30.1125468 C87.9360262,32.2407464 91.3758767,31.9156048 94.3243199,27.8217764 L98.4181483,22.5825627 C101.366592,18.4887343 100.875184,14.3949058 96.4525195,11.6090334 C86.4618046,5.7158417 75.3257045,2.76739847 61.7325683,2.76739847 C25.8746215,2.76370368 0,29.6211396 0,62.0466256 C0,94.1432751 25.3832143,121.000711 62.3902411,121.000711 C75.9833773,121.000711 89.9053498,116.906883 102.186835,107.736411 C105.951827,104.950539 107.263478,101.839525 107.263478,97.7493912 L107.263478,64.6699272 C107.263478,59.5895895 104.315035,56.8037171 99.2383919,56.8037171 Z"></path>
                    <path d="M165.899811,33.2235608 C139.204946,33.2235608 119.227211,52.8761543 119.227211,77.1102885 C119.227211,101.510688 139.204946,120.997016 165.899811,120.997016 C192.590982,120.997016 212.572412,101.344423 212.572412,77.1102885 C212.572412,52.8761543 192.590982,33.2235608 165.899811,33.2235608 Z M165.899811,100.527874 C153.123224,100.527874 143.298775,90.3745883 143.298775,77.2728593 C143.298775,64.0085596 153.123224,53.8552739 165.899811,53.8552739 C178.506438,53.8552739 188.500848,64.0085596 188.500848,77.2728593 C188.497153,90.3745883 178.506438,100.527874 165.899811,100.527874 Z"></path>
                    <path d="M289.545993,18.6513051 L289.545993,12.429277 C289.545993,7.35263413 286.59755,4.57045649 281.520907,4.57045649 L203.243064,4.57045649 C198.166421,4.57045649 195.380549,7.35263413 195.380549,12.429277 L195.380549,18.6513051 C195.380549,23.7279479 198.166421,26.5138203 203.243064,26.5138203 L229.442827,26.5138203 L229.442827,111.338833 C229.442827,116.415475 232.2287,119.201348 237.305343,119.201348 L247.129792,119.201348 C252.21013,119.201348 254.992307,116.415475 254.992307,111.338833 L254.992307,26.5101256 L281.520907,26.5101256 C286.593855,26.5101256 289.545993,23.7279479 289.545993,18.6513051 Z"></path>
                    <path d="M319.02673,33.2235608 C292.331865,33.2235608 272.35413,52.8761543 272.35413,77.1102885 C272.35413,101.510688 292.331865,120.997016 319.02673,120.997016 C345.717901,120.997016 365.699331,101.344423 365.699331,77.1102885 C365.699331,52.8761543 345.717901,33.2235608 319.02673,33.2235608 Z M319.02673,100.527874 C306.250143,100.527874 296.425694,90.3745883 296.425694,77.2728593 C296.425694,64.0085596 306.250143,53.8552739 319.02673,53.8552739 C331.633357,53.8552739 341.627767,64.0085596 341.627767,77.2728593 C341.624072,90.3745883 331.633357,100.527874 319.02673,100.527874 Z"></path>
                    <path d="M498.512288,4.5667617 L491.303751,4.5667617 C488.85041,4.5667617 487.213618,5.54957611 486.230803,8.00661214 L446.109067,100.85671 L405.987332,8.00661214 C405.004517,5.54957611 403.37142,4.5667617 400.914384,4.5667617 L393.705846,4.5667617 C391.08624,4.5667617 389.449447,6.04098331 389.286876,8.66059015 L379.299856,114.612417 C379.133591,117.560861 380.607812,119.197653 383.556256,119.197653 L387.650084,119.197653 C390.432262,119.197653 392.069054,117.723431 392.39789,115.103825 L400.422977,23.3991115 L439.561898,114.283581 C440.544712,116.578046 442.185199,117.723431 444.638541,117.723431 L447.586984,117.723431 C450.040325,117.723431 451.514547,116.578046 452.497361,114.283581 L491.802548,23.3991115 L499.827634,115.103825 C500.156471,117.723431 501.793263,119.197653 504.575441,119.197653 L508.669269,119.197653 C511.617712,119.197653 513.088239,117.560861 512.925668,114.612417 L502.938648,8.66059015 C502.768688,6.04098331 501.13559,4.5667617 498.512288,4.5667617 Z"></path>
                    <path d="M571.233165,35.6805969 C546.012522,35.6805969 527.509008,55.0043539 527.509008,78.7507758 C527.509008,101.839525 545.192278,121.000711 573.361365,121.000711 C583.680916,121.000711 594.813322,118.381104 604.312629,110.356018 C607.098502,108.061553 607.098502,105.441946 605.295444,103.476317 L603.983793,102.168361 C602.18443,100.365303 600.052535,100.202732 597.924336,101.676954 C590.390657,107.407575 582.040429,109.864611 573.361365,109.864611 C553.217364,109.864611 538.973945,96.4377404 540.11933,78.2593685 L607.75248,78.2593685 C610.700923,78.2593685 612.500286,76.6225761 612.008879,73.8367037 C609.880679,47.6369406 591.2109,35.6805969 571.233165,35.6805969 Z M541.264715,68.59749 C546.012522,53.5301323 558.789109,46.816697 571.562002,46.816697 C582.860673,46.816697 595.633565,51.730769 599.402252,68.59749 L541.264715,68.59749 Z"></path>
                    <path d="M668.513318,35.6805969 C643.292675,35.6805969 624.789161,55.0043539 624.789161,78.7507758 C624.789161,101.839525 642.476126,121.000711 670.641518,121.000711 C680.961069,121.000711 692.093474,118.381104 701.592782,110.356018 C704.378654,108.061553 704.378654,105.441946 702.575596,103.476317 L701.263946,102.168361 C699.464582,100.365303 697.332688,100.202732 695.204488,101.676954 C687.670809,107.407575 679.320582,109.864611 670.641518,109.864611 C650.497517,109.864611 636.254098,96.4377404 637.399483,78.2593685 L705.032632,78.2593685 C707.981076,78.2593685 709.780439,76.6225761 709.289032,73.8367037 C707.160832,47.6369406 688.491053,35.6805969 668.513318,35.6805969 Z M638.544868,68.59749 C643.292675,53.5301323 656.069262,46.816697 668.842154,46.816697 C680.140825,46.816697 692.913718,51.730769 696.682405,68.59749 L638.544868,68.59749 Z"></path>
                    <path d="M794.457659,37.4836549 L790.692667,37.4836549 C787.906795,37.4836549 786.273697,39.2867129 786.273697,41.9063197 L786.273697,114.778683 C786.273697,117.560861 787.91049,119.201348 790.692667,119.201348 L794.457659,119.201348 C797.080961,119.201348 798.717753,117.564555 798.717753,114.778683 L798.717753,41.9026249 C798.717753,39.1204473 797.077266,37.4836549 794.457659,37.4836549 Z"></path>
                    <path d="M792.492031,0.964340456 C787.249122,0.964340456 783.48413,4.8955981 783.48413,10.2973826 C783.48413,15.5365962 787.249122,19.4678539 792.492031,19.4678539 C797.564979,19.4678539 801.496236,15.5365962 801.496236,10.2973826 C801.499931,4.8955981 797.568673,0.964340456 792.492031,0.964340456 Z"></path>
                    <path d="M863.40246,35.6805969 C851.28724,35.6805969 839.330896,41.9026249 834.908232,54.8417831 L834.908232,41.9026249 C834.908232,39.1204473 833.271439,37.4799601 830.485567,37.4799601 L826.720575,37.4799601 C824.100968,37.4799601 822.464175,39.2830181 822.464175,41.9026249 L822.464175,114.774988 C822.464175,117.557166 824.100968,119.197653 826.720575,119.197653 L830.485567,119.197653 C833.271439,119.197653 834.908232,117.560861 834.908232,114.774988 L834.908232,79.5673246 C835.070802,53.2012959 853.578011,46.816697 862.582216,46.816697 C872.901768,46.816697 883.217624,53.0387251 883.217624,72.8538893 L883.217624,114.774988 C883.217624,117.557166 884.854416,119.197653 887.640289,119.197653 L891.405281,119.197653 C894.191153,119.197653 895.827946,117.560861 895.827946,114.774988 L895.827946,72.8538893 C895.827946,45.8338826 880.760588,35.6805969 863.40246,35.6805969 Z"></path>
                    <path d="M992.450426,37.4836549 L988.685434,37.4836549 C985.899561,37.4836549 984.429034,39.2867129 984.429034,41.9063197 L984.429034,53.6963979 C977.061621,41.4149125 965.596685,35.6805969 952.332385,35.6805969 C927.274312,35.6805969 911.556671,55.0043539 911.556671,78.4219394 C911.556671,101.839525 927.606843,121.000711 952.332385,121.000711 C965.434114,121.000711 977.057926,115.595232 984.429034,103.151176 L984.429034,117.235719 C984.429034,135.905498 972.31012,146.712762 954.62685,146.712762 C945.293808,146.712762 936.777315,144.747133 928.752229,139.507919 C926.128927,137.708556 924.163298,138.033698 922.855342,140.81957 L921.709957,142.785199 C920.398306,145.242235 920.889713,147.370435 923.017913,148.844656 C931.20557,154.412706 940.867448,157.689986 954.623155,157.689986 C977.711904,157.689986 996.873091,144.425686 996.873091,118.222228 L996.873091,41.9026249 C996.873091,39.1204473 995.232603,37.4836549 992.450426,37.4836549 Z M953.802912,109.864611 C934.970562,109.864611 924.000727,95.6174968 924.000727,78.4219394 C924.000727,61.226382 934.807991,46.816697 953.640341,46.816697 C972.147549,46.816697 984.591605,60.4098331 984.591605,78.4219394 C984.591605,96.762882 971.818713,109.864611 953.802912,109.864611 Z"></path>
                    <path d="M767.895807,37.4356226 L744.138301,37.4356226 L744.138301,16.6265596 C744.138301,14.1695236 742.664079,12.8578727 740.203348,12.8578727 L738.075149,12.8578727 C735.780683,12.8578727 734.310156,14.003258 733.97393,16.4639888 L731.520589,37.4356226 L720.373405,37.4356226 C718.574042,37.4356226 717.753798,38.418437 717.753798,40.0589242 L717.753798,44.8104255 C717.753798,46.6134835 718.574042,47.4337271 720.373405,47.4337271 L731.520589,47.4337271 L731.520589,95.6285811 C731.520589,114.091452 741.947289,119.1644 752.521781,119.1644 L763.805673,119.1644 C766.591546,119.1644 768.228338,117.523913 768.228338,114.74543 L768.228338,112.44727 C768.228338,109.827663 766.591546,108.187176 763.805673,108.187176 L752.521781,108.187176 C748.095422,108.187176 744.134606,105.626686 744.134606,97.1249715 L744.134606,47.4300323 L767.892112,47.4300323 C769.532599,47.4300323 770.511719,46.6134835 770.511719,44.8067307 L770.511719,40.0552294 C770.515414,38.418437 769.536294,37.4356226 767.895807,37.4356226 Z"></path>
                </g>
                <path d="M154.79327,105.611906 C146.221355,100.42442 135.787265,101.159683 128.146437,106.565163 C126.587235,107.66621 124.54771,107.791833 122.896139,106.838577 L98.7506795,92.8981306 C98.3442525,92.6653587 98.3442525,92.077887 98.7506795,91.8451151 L122.759432,77.9822592 C124.422088,77.0216136 126.476391,77.1583208 128.035593,78.2741477 C135.669031,83.7387436 146.143764,84.5146497 154.748932,79.3345527 C165.692903,72.7430456 169.664804,58.2040429 163.586872,46.9681834 C157.047092,34.8751324 141.868891,30.6372071 130.045559,37.4651809 C121.606657,42.3386103 117.202466,51.5053868 117.985762,60.6130466 C118.148332,62.5084744 117.239414,64.3263116 115.595232,65.2795677 L91.4608569,79.2126246 C91.0544298,79.4453965 90.5482435,79.153508 90.5482435,78.6879643 L90.5482435,50.8070713 C90.5482435,48.9005591 91.6788495,47.1935657 93.4117065,46.3954908 C102.578483,42.1760395 108.667499,32.4180964 107.396491,21.4113139 C106.118093,10.3491096 97.1064975,1.38554663 86.0405984,0.155181223 C71.3685833,-1.47422162 58.9466959,9.96485138 58.9466959,24.3080301 C58.9466959,34.1029211 64.743823,42.5455186 73.0903559,46.391796 C74.8269077,47.1898709 75.9612085,48.8968643 75.9612085,50.8070713 L75.9612085,78.6879643 C75.9612085,79.1572028 75.4550222,79.4490913 75.0485952,79.2126246 L50.9142202,65.2758729 C49.2700382,64.3263116 48.3574248,62.5121692 48.5236904,60.6204362 C49.3919663,50.6038578 43.9827923,40.5133835 33.8332014,36.1424457 C23.6244938,31.7456444 11.3836511,35.0672616 4.79214395,44.0197402 C-3.96081597,55.9095777 -0.262330162,72.3920404 12.1595572,79.5636298 C20.6871349,84.4850914 30.9512644,83.6537634 38.4701641,78.2741477 C40.0330607,77.154626 42.0873645,77.0179188 43.7537152,77.9785644 L67.7624673,91.8377255 C68.1688943,92.0704974 68.1688943,92.6579691 67.7624673,92.890741 L43.617008,106.831187 C41.9654364,107.784444 39.9222169,107.658821 38.3667099,106.557773 C30.7295769,101.155988 20.2917923,100.420725 11.7198771,105.604517 C0.809159233,112.207108 -3.14057237,126.727637 2.92627449,137.945023 C9.46605459,150.034379 24.6442561,154.272304 36.4675873,147.44433 C44.9508275,142.545037 49.362408,133.30806 48.5199956,124.152368 C48.3463405,122.24955 49.2515643,120.413239 50.9068306,119.459983 L75.0522899,105.519537 C75.458717,105.286765 75.9649033,105.578653 75.9649033,106.044197 L75.9649033,133.92509 C75.9649033,135.831602 74.8342973,137.538596 73.1014403,138.33667 C63.9346638,142.556122 57.8456482,152.314065 59.1166563,163.320847 C60.395054,174.383052 69.4066493,183.346615 80.4725484,184.57698 C95.1445635,186.206383 107.566451,174.76731 107.566451,160.424131 C107.566451,150.62924 101.769324,142.186643 93.4227909,138.340365 C91.6862391,137.54229 90.5519383,135.835297 90.5519383,133.92509 L90.5519383,106.044197 C90.5519383,105.574959 91.0581246,105.28307 91.4645516,105.519537 L115.610011,119.459983 C117.265277,120.416934 118.174196,122.24955 117.996846,124.152368 C117.154434,133.30806 121.566014,142.545037 130.049254,147.44433 C141.872586,154.272304 157.050787,150.034379 163.590567,137.945023 C169.653719,126.731332 165.703988,112.214498 154.79327,105.611906 Z" id="Shape" fill="#FF9800"></path>
            </g>
            <g id="Group" transform="translate(583.776981, 169.960387)" fill="#A7A8AA">
                <g transform="translate(92.369775, 0.000000)" id="Shape">
                    <path d="M304.753753,7.62604866 C304.70572,7.66299657 304.657688,7.67777574 304.605961,7.69624969 C304.554234,7.71102885 304.495117,7.7331976 304.439695,7.74797676 C304.384274,7.78861947 304.328852,7.81078821 304.295599,7.84034654 C304.251261,7.87729445 304.218008,7.91424236 304.214313,7.96596943 C304.214313,7.99183297 304.214313,8.01400172 304.218008,8.03617046 C304.232787,8.06572879 304.243872,8.07311837 304.251261,8.09528712 C304.277125,8.15809857 304.295599,8.20982564 304.328852,8.25046834 C304.3658,8.29111104 304.391663,8.34283812 304.432306,8.3908704 L305.112147,9.44019105 C305.15279,9.49930771 305.182348,9.54733999 305.219296,9.60645665 C305.248855,9.65448893 305.285803,9.71360559 305.296887,9.77272224 C305.33014,9.84661806 305.315361,9.92051388 305.267329,9.97593575 C305.23777,9.98332533 305.204517,10.0017993 305.204517,10.0017993 C305.174959,10.0017993 305.130621,10.0017993 305.089979,10.0091889 C305.034557,10.023968 304.968051,10.023968 304.89785,10.0091889 C304.860902,10.0017993 304.812869,9.98702012 304.794395,9.98702012 C304.746363,9.98702012 304.727889,9.97963054 304.687246,9.96115658 C304.624435,9.92051388 304.565318,9.85770244 304.52837,9.78380662 C304.480338,9.71730038 304.439695,9.64340456 304.384274,9.59537227 L303.682263,8.45368185 C303.608368,8.36870166 303.56403,8.28002667 303.515998,8.19135169 C303.456881,8.09898191 303.375596,8.01769651 303.3017,7.94380069 C303.242583,7.91793715 303.205635,7.91054757 303.135434,7.8994632 C303.068928,7.8994632 302.991337,7.89207361 302.924831,7.89207361 L302.821377,7.89207361 C302.758566,7.91054757 302.706839,7.91793715 302.666196,7.93271632 C302.625553,7.94380069 302.577521,7.96227464 302.551657,7.99552776 C302.518404,8.06572879 302.49993,8.13592982 302.488846,8.22091001 C302.488846,8.32066937 302.488846,8.42412352 302.488846,8.50910371 L302.488846,9.4217171 C302.488846,9.50669729 302.488846,9.59537227 302.488846,9.6655733 C302.49993,9.74685871 302.488846,9.81705973 302.459288,9.88726076 C302.451898,9.92051388 302.403866,9.953767 302.348444,9.97963054 C302.285632,10.0054941 302.2376,10.0128837 302.171094,10.0128837 C302.108282,10.023968 302.049166,10.0128837 301.982659,10.0128837 C301.927238,10.0054941 301.871816,9.99071491 301.823783,9.96485138 C301.801615,9.92790346 301.786836,9.9131243 301.757277,9.86139723 C301.757277,9.8318389 301.746193,9.78750141 301.746193,9.75794308 L301.746193,9.68404726 C301.735108,9.65818372 301.735108,9.59537227 301.735108,9.53625562 C301.735108,9.48822333 301.746193,9.43649626 301.746193,9.3773796 L301.746193,5.56805006 C301.746193,5.50523862 301.746193,5.43873238 301.746193,5.37592093 C301.746193,5.31310948 301.746193,5.25768762 301.783141,5.21335013 C301.820089,5.16162305 301.849647,5.13945431 301.923543,5.11359077 C301.942017,5.11359077 301.960491,5.10989598 301.971575,5.10989598 L302.023302,5.10989598 L303.21672,5.10989598 C303.57142,5.10989598 303.889172,5.11359077 304.136723,5.13945431 C304.421222,5.15053868 304.635519,5.23921366 304.864596,5.39439489 C304.945882,5.43873238 305.030862,5.50523862 305.086284,5.56805006 C305.200822,5.72692608 305.289497,5.91536042 305.326445,6.11857393 L305.352309,6.3328718 L305.352309,6.43632595 C305.378172,6.50652698 305.378172,6.59520197 305.352309,6.68757174 C305.341225,6.80949985 305.315361,6.89078525 305.304277,6.93881753 C305.25255,7.10508313 305.182348,7.24917998 305.086284,7.35263413 C304.993914,7.44130911 304.886765,7.54476326 304.753753,7.62604866 Z M303.157603,7.28982268 C303.3017,7.28982268 303.438407,7.28982268 303.552946,7.27873831 C303.697043,7.27873831 303.818971,7.25656956 303.92612,7.24917998 C304.048048,7.21962165 304.129333,7.19006332 304.232787,7.15311541 C304.317767,7.1161675 304.391663,7.05335605 304.454475,6.96468107 C304.513591,6.88339567 304.569013,6.77255194 304.583792,6.66909779 C304.617045,6.5804228 304.62813,6.48066345 304.609656,6.3772093 C304.583792,6.27375515 304.580098,6.19985933 304.54315,6.13704788 C304.487728,6.01142499 304.387968,5.91166563 304.280819,5.84515939 C304.147807,5.79343232 304.044353,5.74909482 303.863308,5.72323129 C303.708127,5.70845212 303.545556,5.68628338 303.364511,5.68628338 C303.164993,5.68628338 302.987643,5.68628338 302.810293,5.68628338 C302.810293,5.68628338 302.784429,5.68628338 302.76965,5.69367296 C302.747481,5.70845212 302.736397,5.70845212 302.714228,5.70845212 C302.647722,5.72323129 302.588605,5.76387399 302.559047,5.81190627 C302.533183,5.83776981 302.533183,5.87841251 302.525794,5.89688646 C302.522099,5.93013958 302.522099,5.95600312 302.50732,5.98556145 L302.50732,6.10748955 C302.496235,6.14813225 302.485151,6.19985933 302.496235,6.24789161 C302.496235,6.29592389 302.496235,6.34026139 302.496235,6.39937804 C302.496235,6.51391656 302.496235,6.65062383 302.496235,6.81688943 C302.488846,6.97207065 302.50732,7.09769355 302.559047,7.16050499 C302.610774,7.24179039 302.692059,7.27873831 302.810293,7.27873831 C302.928526,7.28982268 303.043064,7.28982268 303.157603,7.28982268 Z"></path>
                    <path d="M303.312784,12.4699197 C300.608197,12.4699197 298.406102,10.2678242 298.406102,7.55215284 C298.406102,4.84756582 300.611892,2.65285995 303.312784,2.65285995 C306.03215,2.65285995 308.223161,4.84756582 308.223161,7.55215284 C308.223161,10.2678242 306.03215,12.4699197 303.312784,12.4699197 Z M303.312784,3.42876606 C301.036793,3.42876606 299.182008,5.27616157 299.182008,7.55215284 C299.182008,9.82444932 301.036793,11.6829292 303.312784,11.6829292 C305.59247,11.6829292 307.447255,9.82444932 307.447255,7.55215284 C307.447255,5.27616157 305.59247,3.42876606 303.312784,3.42876606 Z"></path>
                    <path d="M33.3639629,67.1158788 L33.3639629,63.6797232 C33.3639629,63.1809264 33.3639629,62.7079932 33.3639629,62.2572287 C33.3639629,61.8138537 33.2346452,61.4406798 32.9833994,61.1340122 C32.8356078,60.9492726 32.5215505,60.7940914 32.0375329,60.6980268 C31.5682945,60.5908779 31.0658029,60.535456 30.5115842,60.4985081 C29.9647552,60.483729 29.3883678,60.483729 28.8156751,60.4985081 C28.198645,60.535456 27.6998483,60.5502352 27.3008108,60.5502352 L17.2362001,60.5502352 C16.2349117,60.5502352 15.2077598,60.5502352 14.1658288,60.5502352 C13.1165081,60.5502352 12.4144978,60.2103144 12.0634927,59.5748104 C11.9748177,59.3198698 11.915701,59.0427605 11.8898375,58.7065345 C11.8528896,58.3924772 11.8491948,58.0488617 11.8491948,57.7089409 L11.8491948,56.9552035 C11.8491948,56.5007442 11.7863833,56.364037 11.8011625,55.9908631 C11.8307208,55.6250788 11.7642146,55.1041132 11.7642146,54.719855 L11.7642146,50.2934953 L11.7642146,27.6665951 L11.7642146,20.8570953 C11.7642146,20.2215912 11.7642146,19.6082559 11.7642146,19.0466477 C11.7642146,18.4702603 11.6496761,18.0084114 11.4021251,17.6574063 C11.1434897,17.3137907 10.7592314,17.1216616 10.2308763,17.095798 C9.71730038,17.0736293 9.18525047,17.0625449 8.62364224,17.0625449 L2.29077043,17.0625449 C2.1799267,17.1031876 2.08755693,17.1216616 1.99888194,17.095798 C1.891733,17.0736293 1.78827885,17.0884085 1.68112991,17.1327459 C1.08996335,17.2842324 0.698315502,17.5317834 0.495101996,17.8827885 C0.351005147,18.1340343 0.262330162,18.4850395 0.236466625,18.935804 C0.210603088,19.3754841 0.195823924,19.8262486 0.195823924,20.2844027 L0.195823924,24.9730925 L0.195823924,41.865677 L0.195823924,61.6660621 L0.195823924,66.901581 C0.195823924,67.3486507 0.195823924,67.80311 0.195823924,68.2760432 C0.195823924,68.7563661 0.288193699,69.1295399 0.498796787,69.4399024 C0.750042577,69.8315502 1.13060605,70.0643221 1.65157158,70.1382179 C2.1799267,70.2158085 2.79326201,70.2638408 3.49157751,70.2638408 L8.85271928,70.2638408 L24.6922884,70.2638408 L29.9980083,70.2638408 C30.4524676,70.2638408 30.9106217,70.2638408 31.4241976,70.2638408 C31.91191,70.2638408 32.2850839,70.1640814 32.5326349,69.9608679 C32.8393026,69.8167711 33.0831588,69.5433565 33.2789827,69.1295399 C33.3824368,68.8893785 33.4267743,68.5790161 33.4046056,68.2390953 C33.3639629,67.891785 33.3639629,67.5186111 33.3639629,67.1158788 Z"></path>
                    <path d="M73.8403985,50.7516494 C73.8403985,50.6075526 73.8403985,50.4708453 73.8403985,50.3378328 C73.7701975,48.4202363 73.5189517,46.6910741 73.1457778,45.4533191 C73.1199142,45.401592 73.1125247,45.3572545 73.1088299,45.3018327 C72.9942913,44.854763 72.8723632,44.4224724 72.7208768,44.0308246 C72.469631,43.3435934 72.2553331,42.6711415 72.0558144,42.0541114 C71.8526009,41.4259969 71.5828812,40.8422199 71.2392656,40.2990856 C70.8808709,39.7522566 70.5520345,39.2202067 70.2268929,38.7287994 C69.9017513,38.2373922 69.5470513,37.7275111 69.1406243,37.2324091 C68.7378921,36.68558 68.2612641,36.1756989 67.6737923,35.7101552 C67.1158788,35.2335271 66.5505758,34.7975418 66.0074415,34.38742 C65.061575,33.733442 64.0307283,33.1607494 62.9112067,32.6656474 C61.2928882,31.5572101 57.8345638,30.7997779 53.8441895,30.7997779 C53.7518197,30.7997779 53.6668395,30.8071675 53.570775,30.8071675 C53.3416979,30.8071675 53.0941469,30.8071675 52.8502907,30.8071675 C52.8133428,30.8071675 52.7690053,30.8256415 52.7690053,30.8256415 C52.33302,30.8441154 51.9339825,30.8588946 51.5460295,30.8995373 C51.2873941,30.8995373 50.9807265,30.921706 50.6925328,30.9660435 C50.6629744,30.9771279 50.6445005,30.9771279 50.6334161,30.9845175 C48.1024843,31.2468476 46.0223169,31.8490986 44.8325942,32.6213099 C44.2968495,32.8023547 43.7795788,33.0277369 43.2955611,33.2752879 C41.5109771,34.4169783 39.9628596,35.6879864 38.7251047,37.0476695 C37.4725705,38.4221318 36.4084707,40.1291252 35.5180261,42.1612603 C35.2593907,42.7598164 35.0672616,43.3842361 34.9305543,43.9864871 C34.7753731,44.6182963 34.5943283,45.2648848 34.405894,45.896694 C34.3061346,46.1479398 34.2396284,46.3844064 34.2396284,46.6097887 C34.2396284,46.7058533 34.2396284,46.798223 34.2322388,46.9016772 C34.1989857,47.0679428 34.1694273,47.241598 34.1324794,47.4152531 C34.0807523,47.5926031 34.051194,47.7699531 34.051194,47.9546926 C33.9366555,48.7823258 33.8738441,49.7023288 33.8405909,50.6666692 C33.8295066,50.8255452 33.8295066,50.9622525 33.8295066,51.0915702 C33.8295066,51.18394 33.8295066,51.2689202 33.8295066,51.3354264 C33.8295066,53.9476437 34.1989857,56.2531932 34.7753731,57.6424347 C34.8603533,57.9860502 34.9601126,58.3370554 35.0266188,58.662197 C35.1596313,59.1683834 35.3480657,59.6413166 35.5845323,60.0846915 C36.4491134,62.039236 37.4762653,63.7018919 38.7287994,65.0985229 C39.9665544,66.4914592 41.4814188,67.714435 43.2142757,68.7600608 C43.775884,69.0593389 44.3005443,69.3105847 44.8215098,69.5027138 C45.3350858,69.6985378 45.9077784,69.9128356 46.5026398,70.1086596 C46.9127616,70.2860095 47.3524417,70.4264116 47.8032062,70.5224762 C49.2072268,71.0175782 51.3834587,71.339025 53.8404947,71.339025 C56.2864464,71.339025 58.4811522,71.0175782 59.8740884,70.5150866 L59.8925624,70.5150866 C60.5317612,70.3931585 61.1487913,70.2047241 61.7584319,69.9571731 C64.1304877,68.9558848 66.1700123,67.714435 67.8770058,66.2254342 C69.5507461,64.7327386 70.9289032,62.7892786 71.9782238,60.3876644 C72.2257748,59.8888676 72.4252935,59.3605125 72.5804748,58.7841251 C72.717182,58.2151273 72.9056164,57.653519 73.1051351,57.0993004 C73.1162195,56.9662879 73.142083,56.8443598 73.1642517,56.7187369 C73.5817631,55.3073267 73.8403985,53.3269188 73.8403985,51.1174337 C73.8403985,51.0435379 73.8403985,50.9585577 73.8403985,50.8698827 C73.8403985,50.82924 73.8403985,50.7996817 73.8403985,50.7516494 Z M62.6414869,56.2827516 C62.5417276,56.7778536 62.4013255,57.2803451 62.1944172,57.7717524 C61.6438933,59.0242865 60.978831,60.0625228 60.1807561,60.9234091 C59.386376,61.7658214 58.3333606,62.4419682 57.0475733,62.922291 C56.7039578,63.081167 56.2975307,63.1144202 55.9206621,63.2400431 C55.4588132,63.3730555 55.285158,63.3730555 54.9119841,63.4506461 L54.4944727,63.4506461 C53.9328645,63.506068 53.7148718,63.5208472 53.4968791,63.4912889 C53.2678021,63.4617305 53.0461146,63.5430159 52.8576803,63.4912889 C52.6618564,63.4284774 52.6064345,63.4506461 52.3921366,63.4247826 C52.2480398,63.4063087 52.0189627,63.3619712 51.8231388,63.3065493 C51.3760691,63.1994004 50.9326942,63.0774723 50.5077932,62.9185962 C50.086587,62.7855838 49.7023288,62.5823703 49.343934,62.3311245 C48.1135686,61.5847767 47.2083448,60.7571435 46.6319574,59.829751 C46.1479398,59.05015 45.6897857,58.07842 45.26119,56.9034765 C44.6737182,55.6841954 44.2894599,53.5559958 44.2894599,51.1359077 C44.2894599,49.0742143 44.5591797,47.2157344 45.013639,45.9779794 C45.0616713,45.7636815 45.1060087,45.5678576 45.1762098,45.3720337 C45.6121951,44.0271298 46.2218356,42.8411019 46.9977417,41.8324239 C47.7736479,40.805272 48.778631,40.0108919 50.0311652,39.4751472 C50.2676318,39.3273556 50.5669099,39.2165119 50.8883567,39.1278369 C51.2098035,39.0613306 51.5460295,38.98374 51.8933398,38.8692015 C52.0300471,38.824864 52.2295658,38.7953057 52.4253898,38.7620526 C52.650772,38.736189 52.5842658,38.7620526 52.9315761,38.7251047 C53.3823406,38.6807672 53.8331051,38.7140203 54.2727853,38.6881567 C54.7235498,38.6622932 55.1484507,38.6955463 55.5474882,38.7953057 C55.8911037,38.9024546 56.2199401,38.98374 56.5155234,39.0613306 C56.8111067,39.1278369 57.1214691,39.2165119 57.4133576,39.3236608 C58.662197,39.8778795 59.6560958,40.6057533 60.4135279,41.529451 C61.1598757,42.4420644 61.7953798,43.5689757 62.3422088,44.8510682 C62.4826109,45.2574952 62.6119286,45.6602274 62.6784348,46.0851284 C62.693214,46.1405502 62.7079932,46.2033617 62.7153827,46.2698679 C63.1070306,47.5113177 63.3434972,49.2330903 63.3434972,51.1359077 C63.3434972,53.0941469 63.0774723,54.860257 62.6784348,56.1054016 C62.6784348,56.1571287 62.6636557,56.2236349 62.6414869,56.2827516 Z"></path>
                    <path d="M175.668839,17.3581282 C175.428678,17.1623043 175.055504,17.0625449 174.578876,17.0625449 C174.124416,17.0625449 173.640399,17.0625449 173.204413,17.0625449 L168.046485,17.0625449 L163.18414,17.0625449 C162.689038,17.0625449 162.230884,17.0625449 161.735782,17.0625449 C161.259154,17.0625449 160.874896,17.1881678 160.575618,17.4283292 C160.187665,17.6832698 159.90686,18.0084114 159.759069,18.4000593 C159.607582,18.8064863 159.46718,19.2018289 159.319389,19.6008663 C159.053364,20.3989412 158.813202,21.1933213 158.565651,21.9507534 C158.299626,22.7155752 158.074244,23.5025657 157.815609,24.3043353 C156.82171,27.3968754 155.820422,30.4709415 154.819133,33.5302285 C153.82154,36.596905 152.823946,39.6451076 151.833742,42.678531 C151.427315,43.8313058 151.080005,44.9582171 150.754863,46.0888232 C150.429721,47.2120396 150.060242,48.3352561 149.679679,49.4806413 C149.517108,49.8833735 149.369316,50.3304432 149.21783,50.82924 C149.151324,51.0435379 149.070038,51.2208879 148.962889,51.3649847 C148.715338,51.8600867 148.42345,52.1187221 148.131561,52.1187221 C147.588427,52.1187221 147.093325,51.1617712 146.731236,49.6247382 C146.431958,48.848832 146.162238,48.0507572 145.94055,47.241598 C145.637578,46.1996669 145.301352,45.172515 144.902314,44.1749214 C143.705202,40.982622 142.589375,37.7755434 141.569613,34.546296 C140.535071,31.3022695 139.467277,28.1247492 138.318197,24.9693977 C138.026308,24.1417645 137.738114,23.2919626 137.468395,22.4754138 C137.183896,21.6625597 136.895702,20.8460109 136.600119,20.0479361 C136.444937,19.5971716 136.297146,19.1390175 136.153049,18.6623894 C136.008952,18.1894562 135.754012,17.8310615 135.414091,17.5798157 C134.959632,17.2288105 134.316738,17.0588501 133.503884,17.0588501 C132.668861,17.0588501 131.867091,17.0588501 131.061627,17.0588501 L121.274126,17.0588501 C121.189145,17.0994928 121.078302,17.1179668 120.982237,17.0921032 C120.886173,17.0699345 120.782718,17.0847137 120.682959,17.1290512 C120.084403,17.2805376 119.685365,17.5280886 119.482152,17.8790937 C119.393477,18.0896968 119.315886,18.3668061 119.271549,18.7473696 C119.208737,19.1094591 119.193958,19.501107 119.193958,19.8927548 C119.193958,20.2844027 119.193958,20.7093037 119.193958,21.1231202 C119.193958,21.5591056 119.193958,21.9101107 119.193958,22.2167784 L119.193958,32.6619526 L119.193958,60.4726446 L119.193958,67.0382882 C119.193958,67.5851173 119.208737,68.120862 119.271549,68.6492171 C119.315886,69.1664879 119.482152,69.5544409 119.799904,69.8056867 C120.084403,70.0458481 120.472356,70.1825554 120.904646,70.2047241 C121.348021,70.2268929 121.843123,70.2527564 122.397342,70.2527564 L126.291652,70.2527564 C126.6833,70.2527564 127.078642,70.2527564 127.481374,70.2823147 C127.880412,70.3229574 128.257281,70.27862 128.597201,70.171471 C129.147725,70.082796 129.520899,69.853719 129.716723,69.4953243 C129.927326,69.2625524 130.019696,68.9411056 130.019696,68.527289 C130.019696,68.1171672 130.019696,67.7366037 130.019696,67.3338715 L130.019696,63.6686388 L130.019696,43.7980527 C130.071423,43.2438341 130.093592,42.697005 130.093592,42.1501759 C130.093592,41.6144312 130.093592,41.071297 130.093592,40.5133835 C130.093592,40.1180409 130.126845,39.5120951 130.093592,39.142616 C130.071423,38.7731369 130.108371,38.6216505 130.093592,38.2632558 C130.078813,37.7681538 130.093592,37.5390767 130.093592,37.1917664 C130.093592,36.8407612 130.263552,36.2495947 130.695843,36.3087113 C130.876887,36.3271853 130.969257,36.3604384 131.057932,36.4454186 C131.172471,36.5119248 131.27223,36.6042946 131.368295,36.6966644 C131.660183,37.1400393 131.940987,37.7201215 132.184843,38.4110474 C132.221791,38.5108068 132.258739,38.6068713 132.321551,38.7214099 L142.134916,66.8387695 L142.164474,66.8239903 C142.279013,67.1860799 142.404635,67.5629486 142.567206,67.9398172 C142.781504,68.3868869 142.925601,68.7785348 143.102951,69.0852025 C143.228574,69.4140389 143.524157,69.6911482 143.9195,69.9460888 C144.115324,70.0975752 144.407212,70.1973345 144.80625,70.2490616 C145.216371,70.3007887 145.648662,70.3192627 146.12529,70.3192627 C146.587139,70.3192627 147.067462,70.3192627 147.540395,70.27862 C148.005939,70.2490616 148.419755,70.2490616 148.767066,70.2490616 L150.503617,70.2490616 C150.939603,70.2675356 151.183459,70.2490616 151.419925,70.2231981 C151.674866,70.2121137 152.000008,70.1493023 152.243864,69.942394 C152.48772,69.7354857 152.583785,69.5581357 152.694628,69.2588576 C152.812862,68.9817483 152.908926,68.8487358 153.01977,68.5309838 L153.344912,67.7366037 L163.62382,37.8753027 C163.62382,37.8716079 163.634905,37.83466 163.642294,37.8235756 C163.742054,37.5612455 163.823339,37.2989153 163.989605,37.0328904 C164.126312,36.7668654 164.251935,36.6116842 164.429285,36.2902374 C164.462538,36.2348155 164.499486,36.1461405 164.573382,36.0426864 C164.654667,35.9355374 165.03523,35.7286291 165.179327,35.7729666 C165.485995,35.8764208 165.522943,35.9207583 165.593144,36.3050165 C165.670734,36.7114436 165.65965,37.4910445 165.65226,37.8716079 C165.622702,38.3260672 165.722462,38.7029359 165.696598,39.1204473 C165.66704,39.5564326 165.66704,39.9628596 165.66704,40.3582023 C165.66704,41.0047907 165.66704,41.6402948 165.66704,42.272104 C165.66704,42.8854393 165.674429,43.5615861 165.737241,44.2414276 L165.737241,63.4432566 L165.737241,67.2599757 C165.737241,67.7033506 165.737241,68.1171672 165.737241,68.527289 C165.737241,68.9411056 165.82961,69.2625524 166.036519,69.4953243 C166.221258,69.8056867 166.465115,69.9756471 166.742224,70.0199846 C167.019333,70.082796 167.351864,70.1529971 167.743512,70.2527564 L169.775647,70.2527564 L173.363289,70.2527564 C173.891644,70.2527564 174.397831,70.2268929 174.855985,70.2047241 C175.29197,70.1825554 175.672534,70.0458481 175.971812,69.8056867 C176.27109,69.5544409 176.433661,69.1664879 176.444745,68.6492171 C176.477998,68.1171672 176.496472,67.5814225 176.496472,67.0382882 L176.496472,60.5465404 L176.496472,32.7469328 L176.496472,21.5406316 C176.496472,20.6871349 176.496472,19.8558069 176.496472,19.0466477 C176.496472,18.2264041 176.211973,17.6574063 175.668839,17.3581282 Z"></path>
                    <path d="M114.937559,33.4563327 C114.904306,32.8836401 114.726956,32.4809078 114.38334,32.2333568 C114.091452,31.9858058 113.721973,31.8454038 113.293377,31.8121507 C112.868476,31.7862871 112.388153,31.7825923 111.845019,31.7825923 L108.035689,31.7825923 C107.57384,31.7825923 107.13416,31.7862871 106.712954,31.8121507 C106.295443,31.8454038 105.933353,31.9636371 105.634075,32.1557662 C105.438251,32.3589797 105.294154,32.5954464 105.220259,32.8577765 C105.187005,33.0277369 105.187005,33.1274963 105.161142,33.3454889 C105.02074,34.2359336 104.706683,34.9490282 104.056399,35.0303136 C103.69431,35.0709563 103.335915,34.900996 103.084669,34.5906335 C102.89254,34.4613158 102.733664,34.3246086 102.578483,34.1731221 C102.334627,33.9292659 102.053823,33.6706305 101.754545,33.4341639 C101.551331,33.2789827 101.38876,33.1422754 101.233579,33.009263 C101.078398,32.8873348 100.930606,32.7838807 100.775425,32.6693422 C100.136226,32.2555256 99.4231315,31.8934361 98.6472254,31.6052424 C98.0782276,31.2653216 97.0215173,30.9919071 95.7061717,30.8551998 C95.0226354,30.7517456 94.3206251,30.7147977 93.5521086,30.7258821 C93.4892971,30.7258821 93.4301805,30.7258821 93.3525899,30.7258821 C92.8390139,30.7258821 92.3328275,30.7406613 91.8561995,30.7776092 C91.8229464,30.7776092 91.7712193,30.781304 91.7490506,30.781304 C90.1085633,30.8958425 88.771049,31.187731 88.0838179,31.5904632 C87.6404429,31.7382548 87.2081524,31.9082152 86.8238941,32.070786 C86.1034099,32.3663693 85.4383475,32.7321536 84.7917591,33.1238015 C84.5515977,33.2715931 84.2892675,33.4415535 84.0454113,33.6041243 C83.7978603,33.7777795 83.5355301,33.9736034 83.2990635,34.1694273 L82.8630782,34.6128023 C82.6044428,34.8234053 82.334723,35.0450928 82.0797825,35.3000334 C81.787894,35.5438896 81.5846805,35.7877458 81.4221097,36.0389916 C81.0821889,36.4934509 80.7459629,36.9220466 80.4208213,37.339558 C80.1030693,37.764459 79.8111808,38.2373922 79.5562402,38.7287994 C79.064833,39.5194847 78.6621008,40.3692867 78.340654,41.2708157 C78.2298102,41.5627042 78.1189665,41.8767614 78.0229019,42.1834291 C77.4871572,43.3879309 77.084425,45.1392619 76.8812115,47.1898709 C76.8442636,47.3413573 76.8331792,47.4743698 76.8442636,47.6147718 L76.8442636,47.629551 C76.7888417,48.2354967 76.7555886,48.8525268 76.7334199,49.5028101 C76.7334199,49.628433 76.7334199,49.7577506 76.7334199,49.8870683 C76.7334199,49.9424902 76.7334199,49.9942173 76.7334199,50.03486 C76.7334199,50.1457037 76.7334199,50.2343787 76.7334199,50.3304432 C76.7334199,53.8146312 77.261775,56.8739181 78.0820186,58.6474178 C78.1226613,58.750872 78.1854727,58.8728001 78.233505,58.9688646 C79.1239496,61.1118434 80.2286922,62.940765 81.5514273,64.4630189 C82.8704677,65.9889676 84.5959351,67.1639111 86.7426087,68.0137131 C87.2894378,68.2649588 87.8879939,68.4423088 88.541972,68.5642369 C89.1737812,68.6972494 89.8573176,68.8265671 90.5667174,68.9854431 C90.7440674,69.040865 90.9472809,69.0593389 91.1172413,69.0593389 C91.2835069,69.0593389 91.4571621,69.0888972 91.6012589,69.1221504 L92.1887307,69.1221504 C92.4547556,69.1923514 92.8464035,69.2145201 93.3969273,69.2145201 C93.9474512,69.2145201 94.3427938,69.1923514 94.5903448,69.1221504 C94.8378958,69.0888972 95.100226,69.040865 95.3884197,69.0186962 C95.6359707,68.9928327 95.9537227,68.95219 96.2345269,68.9078525 C96.8293882,68.7600608 97.4020808,68.6011848 97.9526047,68.4607828 C98.4920442,68.3092963 99.0499576,68.120862 99.5820075,67.8622266 C100.143616,67.6220652 100.642413,67.3449559 101.082093,67.0456778 C101.536552,66.7463997 101.972537,66.4249529 102.423302,66.0665582 C102.582178,65.9594093 102.711496,65.8485655 102.870372,65.7081635 C102.97752,65.6084041 103.103143,65.4827812 103.225071,65.3941062 C103.369168,65.2758729 103.528044,65.1798083 103.727563,65.1391656 C104.04901,65.0209323 104.359372,65.0320167 104.625397,65.1761136 C105.150058,65.4753916 105.227648,66.0887269 105.150058,67.0087299 C105.150058,67.1010997 105.127889,67.3117028 105.127889,67.4262413 C105.098331,67.6220652 105.087246,67.8104996 105.087246,68.0063235 C105.087246,68.5568473 104.950539,69.0186962 104.92837,69.5396617 C104.895117,70.0606273 104.839695,70.5483397 104.739936,70.9991042 C104.651261,71.3501093 104.569975,71.6641666 104.521943,71.9708342 C104.470216,72.2627227 104.400015,72.5620008 104.307645,72.8612789 C103.853186,73.8588724 103.276799,74.7345379 102.585873,75.4734961 C102.146192,75.9390398 101.65109,76.3491616 101.074703,76.6890824 C100.849321,76.855348 100.550043,77.0216136 100.221206,77.154626 C100.128837,77.1989635 100.058636,77.2359114 99.9847397,77.2765541 C99.8073898,77.3541447 99.6632929,77.3910927 99.5228909,77.4169562 C98.9169451,77.6053905 98.2075453,77.7494874 97.4353339,77.8418572 C95.9906706,78.0118176 95.2997447,77.9194478 93.8107439,77.6829811 C93.2195774,77.6127801 92.64319,77.3393656 92.0335495,77.0437823 C91.7786089,76.925549 91.545837,76.8073157 91.3537079,76.659524 C91.0581246,76.4563105 90.7625414,76.2346231 90.503906,76.005546 C90.4706529,75.9759877 90.433705,75.9575137 90.4041466,75.916871 C90.396757,75.9094815 90.3782831,75.8947023 90.3782831,75.8836179 C90.0716154,75.5695607 89.7945061,75.262893 89.5875978,74.9155827 C89.5210916,74.8453816 89.4804489,74.7936546 89.4287218,74.7345379 C89.0296844,74.1914036 88.7451855,73.7517235 88.541972,73.4265819 C88.3424532,73.1014403 87.8473512,72.8428049 87.038192,72.646981 C86.7869462,72.646981 86.5874275,72.6174227 86.4100775,72.6026435 C86.225338,72.5656956 86.0221245,72.558306 85.7708787,72.558306 L83.2399468,72.558306 C82.6783386,72.558306 82.087172,72.5509164 81.4775315,72.5250529 C80.8568066,72.4954946 80.2878088,72.5324425 79.8037912,72.6432862 C79.2865205,72.7430456 78.9170413,72.9462591 78.6473216,73.2714007 C78.3517383,73.5965423 78.3000112,74.0768651 78.4514977,74.7308431 C78.49953,74.8269077 78.5180039,74.963615 78.5180039,75.0929326 C78.5180039,75.2591982 78.5845102,75.3996003 78.6879643,75.5473919 C79.3751954,77.5906114 80.4725484,79.2200142 81.9726335,80.44299 C83.4690239,81.6548815 85.1390694,82.6672542 87.038192,83.4616343 C87.4889565,83.6648478 87.9545002,83.8421978 88.434823,83.9604311 C88.9040615,84.0638852 89.3806895,84.1858133 89.8831811,84.2929623 C89.9533821,84.3262154 90.0383623,84.3520789 90.1381217,84.3742477 C91.3278444,84.6587466 93.031143,84.8508757 94.9746031,84.8767393 C95.0632781,84.8952132 95.1519531,84.8952132 95.2517124,84.8952132 C95.2849656,84.8952132 95.3145239,84.8952132 95.3366926,84.8952132 C95.4142832,84.8952132 95.4660103,84.8952132 95.5362113,84.8952132 C97.5277037,84.8952132 99.3196774,84.7141685 100.609159,84.4407539 C101.13382,84.3779425 101.684344,84.2929623 102.205309,84.1451706 C102.811255,83.9862946 103.380253,83.838503 103.927082,83.6833218 C104.466521,83.5392249 105.017045,83.3470958 105.578653,83.0810708 C107.451912,82.3014699 109.070231,81.2780128 110.385576,80.0254787 C111.700922,78.7766393 112.779801,77.2174375 113.640687,75.3146201 C113.880849,74.7604015 114.076673,74.1803193 114.20599,73.5706787 C114.320529,72.9425643 114.479405,72.2775019 114.682618,71.5902708 C114.734345,71.1912333 114.774988,70.825449 114.797157,70.5040022 C114.815631,70.1825554 114.863663,69.8167711 114.900611,69.4251232 C114.900611,69.0334754 114.908001,68.6455223 114.941254,68.2612641 C114.959728,67.8880902 114.967117,67.5075267 114.967117,67.1047945 L114.967117,35.200274 C114.963423,34.6091075 114.956033,34.0290253 114.937559,33.4563327 Z M104.961623,51.3871535 C104.909896,52.1593648 104.824916,52.898323 104.65865,53.5966385 C104.514554,54.2912592 104.333509,54.8639518 104.137685,55.303632 C103.646278,56.5598609 103.014468,57.6239607 102.238562,58.5291845 C101.458961,59.4307135 100.450283,60.1253342 99.2088336,60.6167414 C98.8024066,60.8162602 98.4181483,60.9529674 98.0228057,60.9936101 C98.0228057,60.9936101 97.9858578,60.9936101 97.9747734,61.0046945 C97.6348526,61.0896747 97.2432048,61.1598757 96.8478622,61.1968236 C96.8109142,61.2042132 96.7813559,61.2042132 96.744408,61.2189924 L96.6372591,61.2189924 C96.4044872,61.2337715 96.1643258,61.2522455 95.9241644,61.2522455 C95.8207103,61.2854986 95.6987822,61.2854986 95.5583801,61.2596351 C95.5103478,61.2522455 95.4660103,61.2522455 95.4253676,61.2374663 C95.0817521,61.2374663 94.7529157,61.1857393 94.446248,61.1414018 C94.3945209,61.1414018 94.3390991,61.1414018 94.2910668,61.1414018 C94.1839178,61.119233 94.0952429,61.0933695 94.0139574,61.0712007 C93.5114659,60.9566622 93.0828701,60.8051758 92.7207806,60.6389102 C92.5397358,60.5576248 92.3513015,60.483729 92.1850359,60.3913592 C91.0470403,59.8001926 90.149206,59.0132021 89.4989228,58.0414721 C88.8634188,57.0734369 88.3055053,55.939136 87.8732148,54.6348748 C87.8030137,54.4021029 87.7586763,54.1730259 87.710644,53.9439489 C87.5998002,53.4710156 87.5000409,52.9537449 87.4372294,52.4143054 C87.4224503,52.3810523 87.4224503,52.3551887 87.4076711,52.3256304 L87.4076711,52.2517346 C87.3596388,51.8231388 87.3116065,51.3391212 87.2968274,50.847714 C87.2377107,50.334138 87.2377107,49.7355819 87.2746586,49.0372664 C87.2968274,48.302003 87.3596388,47.699752 87.444619,47.2009553 C87.4852617,46.8093074 87.551768,46.4361335 87.6404429,46.0925179 C87.6404429,46.0666544 87.6404429,46.0592648 87.6404429,46.0518752 C87.6404429,45.896694 87.6884752,45.7045649 87.799319,45.4570139 L87.799319,45.4385399 C87.9766689,44.7623932 88.1909668,44.2007849 88.4385178,43.7647996 C88.7599646,43.0701789 89.1183594,42.4198957 89.5026176,41.795476 C90.1972383,40.6981231 91.2096111,39.885269 92.4953983,39.3347452 C92.5692942,39.3125764 92.64319,39.2830181 92.7281702,39.2571546 C93.474518,38.8618119 94.6014292,38.6142609 95.8502686,38.6142609 C96.7259341,38.6142609 97.5277037,38.736189 98.1705973,38.9283182 C99.2864242,39.16109 100.224901,39.5379587 100.941691,40.081093 C102.253341,41.0232647 103.243545,42.3644738 103.934471,44.1158048 C104.078568,44.4187776 104.189412,44.7328349 104.31134,45.08384 C104.40371,45.4311504 104.518248,45.7858503 104.603229,46.1257711 C104.632787,46.2624783 104.654956,46.3807116 104.654956,46.4730814 C104.702988,46.7317168 104.743631,46.994047 104.784273,47.2600719 C104.920981,47.8290697 104.994876,48.442405 105.005961,49.1185518 C105.031824,49.8538152 105.009656,50.6223317 104.961623,51.3871535 Z"></path>
                    <path d="M217.612107,47.9029655 C217.464315,46.8388657 217.257407,45.8745253 217.017245,45.1133983 C216.75861,44.0012662 216.315235,42.7450373 215.727763,41.4407761 C215.568887,41.034349 215.380453,40.6094481 215.155071,40.2251898 C215.107038,40.1439044 215.051616,40.081093 215.014668,40.0071971 C214.386554,38.8396432 213.695628,37.7903225 213.023176,36.933131 C212.982533,36.8887935 212.94928,36.8296769 212.919722,36.7816446 C212.897553,36.7816446 212.890164,36.774255 212.890164,36.774255 C212.350724,36.1165822 211.818674,35.5845323 211.323572,35.200274 C211.264456,35.1411574 211.179475,35.0709563 211.120359,35.0303136 C210.676984,34.6497502 210.222525,34.3209138 209.775455,34.0179409 C208.323402,33.0277369 206.697694,32.2185777 204.868772,31.594158 C204.868772,31.594158 204.857688,31.594158 204.831824,31.5867684 C203.571901,31.0658029 201.436312,30.7295769 199.019918,30.7295769 C198.971886,30.7295769 198.920159,30.7406613 198.868432,30.7406613 C198.702166,30.7406613 198.528511,30.7406613 198.321603,30.7406613 C198.321603,30.7406613 198.306824,30.7406613 198.306824,30.7406613 C197.83389,30.7554404 197.39421,30.7776092 196.95453,30.8071675 C196.688505,30.8256415 196.392922,30.8441154 196.093644,30.8995373 C196.027137,30.8995373 195.971716,30.9069269 195.919989,30.921706 C195.092355,31.0399393 194.357092,31.1914258 193.77701,31.3724705 C193.074999,31.505483 192.380379,31.7197809 191.685758,32.0042798 C186.557388,34.158343 182.921714,37.8051017 180.78243,42.9925883 C180.586606,43.439658 180.42034,43.9273704 180.283633,44.4187776 C179.829174,45.7747659 179.511422,47.4595906 179.382104,49.3513236 L179.352546,49.4917257 L179.352546,49.6173486 C179.326682,49.9905225 179.311903,50.3747807 179.311903,50.7553442 C179.304513,50.8329348 179.304513,50.9105254 179.304513,50.9992004 C179.304513,51.095265 179.304513,51.1987191 179.304513,51.2836993 C179.304513,54.4612196 179.851342,57.2951243 180.693755,59.1536042 C180.826767,59.6450114 181.018896,60.1401134 181.229499,60.624131 C182.020185,62.3717672 183.036252,63.9014107 184.285092,65.2315354 C185.537626,66.5394914 186.945341,67.6996558 188.54888,68.6972494 C188.947918,68.9558848 189.380208,69.1517087 189.856836,69.3290587 C190.281737,69.4805451 191.937004,70.1677762 192.672267,70.3931585 C193.259739,70.5926772 193.94697,70.7515532 194.715487,70.8919553 C194.774603,70.9067344 194.82633,70.9252084 194.874363,70.9252084 C195.757418,71.1210323 196.618304,71.1764542 197.257503,71.1875385 C197.700878,71.2207917 198.155337,71.2392656 198.613491,71.2392656 C198.72064,71.2392656 198.838873,71.2392656 198.979275,71.2392656 C199.012529,71.2392656 199.06795,71.2392656 199.123372,71.2392656 C204.159372,70.9399875 204.953753,70.4596647 207.488379,69.587694 C209.139951,68.9706639 209.428144,68.6972494 210.588309,67.8696162 C211.970161,66.8683278 213.21161,65.5529822 214.323743,63.912495 C214.708001,63.3730555 215.066396,62.8188369 215.365674,62.268313 C215.657562,61.7251787 215.942061,61.1044539 216.185917,60.395054 C216.278287,60.1511978 216.322625,59.8408353 216.296761,59.5046093 C216.289371,59.3642073 216.267203,59.2422792 216.21917,59.1499094 C216.137885,58.6843657 215.812743,58.3629189 215.428485,58.3629189 L213.784303,58.3629189 C213.640206,58.3296658 213.48133,58.3296658 213.31137,58.344445 C213.255948,58.3481398 213.185747,58.3481398 213.122935,58.3629189 L210.647426,58.3629189 C210.518108,58.3481398 210.381401,58.3481398 210.248388,58.344445 C210.030395,58.344445 209.819792,58.344445 209.616579,58.3629189 L209.151035,58.3629189 C208.844367,58.3629189 208.027819,58.6289439 207.529022,59.2385844 C207.362756,59.4417979 207.152153,59.7078228 206.993277,59.8962572 C206.716168,60.236178 206.557292,60.4209175 206.265403,60.7460591 C205.870061,61.1709601 205.79986,61.189434 205.17544,61.5958611 C204.539936,61.9875089 203.970938,62.3163453 203.483226,62.5565067 C203.472141,62.5675911 203.472141,62.5712859 203.461057,62.5749807 C202.910533,62.8594796 202.156796,63.0848618 201.255267,63.2363483 C201.133339,63.2474326 200.996631,63.3028545 200.871008,63.3139389 L200.667795,63.3139389 C200.335264,63.347192 199.991648,63.3693607 199.662812,63.3804451 C199.282248,63.4136982 198.864737,63.4136982 198.402888,63.3804451 L198.369635,63.3804451 C196.843686,63.3139389 195.528341,63.0183556 194.697013,62.5897598 C194.534442,62.515864 194.38665,62.4308838 194.231469,62.3385141 C193.222791,61.7399579 192.45058,61.0601164 191.877887,60.2768207 C191.305195,59.5009146 190.754671,58.5698272 190.359328,57.3727149 C190.337159,57.3320722 190.252179,57.0956056 190.23001,57.0512681 C190.14503,56.7667692 190.122861,56.5303026 190.063745,56.098012 C190.056355,55.8947985 190.034186,55.7137538 190.034186,55.5437934 C190.004628,55.3701382 190.019407,55.1780091 190.063745,54.9932695 C190.108082,54.7272446 190.193062,54.5203363 190.303906,54.4242717 C190.337159,54.3540707 190.374107,54.3097332 190.422139,54.2727853 C190.518204,54.0695718 190.758365,53.8737478 191.161098,53.6705343 C191.401259,53.5818593 191.696842,53.5190479 192.025679,53.5190479 C192.35082,53.5190479 192.687046,53.5190479 193.041746,53.5190479 L211.26815,53.5190479 C211.707831,53.5190479 212.217712,53.5338271 212.794099,53.5559958 C213.370486,53.5929437 213.946874,53.5929437 214.512177,53.5559958 C215.08487,53.5338271 215.605835,53.4894896 216.075074,53.411899 C216.559091,53.3343083 216.92857,53.2012959 217.153952,53.0054719 C217.412588,52.8576803 217.586243,52.5214543 217.682308,52.0300471 C217.759898,51.660568 217.833794,50.4671505 217.789457,50.1530933 C217.859658,49.292207 217.767288,49.0631299 217.612107,47.9029655 Z M206.479701,46.2735627 C206.23215,46.6762949 205.729659,46.8795084 204.968532,46.9016772 C204.177846,46.9312355 203.446278,46.9460147 202.759047,46.9460147 L194.453156,46.9460147 C193.806568,46.9460147 193.1452,46.9460147 192.439495,46.9460147 C191.73379,46.9460147 191.194351,46.8203918 190.806398,46.5728408 C190.544068,46.3696273 190.381497,46.1146867 190.314991,45.8191034 C190.241095,45.5198253 190.23001,45.2094629 190.281737,44.8954057 C190.326075,44.570264 190.422139,44.2340381 190.544068,43.9236756 C190.665996,43.5874496 190.765755,43.3288143 190.872904,43.1292956 C191.91853,41.0971605 193.525764,39.7153087 195.731554,39.0280775 C195.971716,38.9209286 196.263604,38.843338 196.573967,38.7694422 C196.913887,38.6733776 197.645456,38.5699234 197.859754,38.5440599 C198.074052,38.5218912 201.177676,38.1450225 203.209811,39.744867 C204.262827,40.5835845 205.271505,41.4961979 205.973515,42.8374071 C206.110222,43.1810226 206.328215,43.7167673 206.597935,44.4520307 C206.867654,45.1614306 206.845486,45.7673763 206.479701,46.2735627 Z"></path>
                    <path d="M264.635712,0 C240.142942,0 220.28344,19.8410278 220.28344,44.3337974 C220.28344,68.8228723 240.142942,88.6749844 264.635712,88.6749844 C289.113702,88.6749844 308.958425,68.8228723 308.958425,44.3337974 C308.958425,19.8410278 289.110008,0 264.635712,0 Z M249.413173,69.9830367 C249.232128,70.3266522 248.770279,70.6037616 248.079353,70.8032803 C247.732043,70.914124 247.351479,70.932598 246.952442,70.8697865 C246.564489,70.8328386 246.150672,70.8032803 245.759025,70.8032803 L241.343749,70.8032803 C240.80431,70.8032803 240.298123,70.7848063 239.814106,70.7293845 C239.344867,70.6887418 238.960609,70.5372553 238.665026,70.2823147 C238.42117,70.031069 238.265988,69.6726742 238.210567,69.1738774 C238.173619,68.6713859 238.14406,68.1430307 238.14406,67.5962017 L238.14406,61.1007591 L238.14406,33.8184222 L238.14406,22.9113991 C238.14406,22.2204732 238.14406,21.4002296 238.096028,20.4580579 C238.084944,19.501107 238.199482,18.847129 238.443338,18.4443968 C238.635467,18.1303395 238.956914,17.8938729 239.411374,17.6906594 C239.55547,17.6906594 239.699567,17.679575 239.810411,17.6463219 C239.939729,17.6204584 240.032098,17.6130688 240.157721,17.6130688 L246.575573,17.6130688 C247.137182,17.6130688 247.647063,17.6204584 248.149554,17.6463219 C248.637267,17.679575 249.01783,17.8643146 249.265381,18.2079301 C249.516627,18.5589353 249.653334,19.0133946 249.675503,19.5454445 C249.705061,20.1070527 249.716146,20.6982193 249.716146,21.3521973 L249.716146,27.8513347 L249.716146,53.7776833 L249.716146,66.0074415 C249.716146,66.6761987 249.719841,67.3929882 249.749399,68.2058422 C249.782652,68.9854431 249.671808,69.587694 249.413173,69.9830367 Z M293.21492,47.4928437 L293.21492,54.1397728 L293.21492,66.2476029 C293.21492,67.1971642 293.203836,68.1171672 293.181667,68.9780535 C293.148414,69.8500242 292.77524,70.4153272 292.102788,70.6517938 C291.785036,70.7478584 291.44881,70.8032803 291.049773,70.8032803 C290.65443,70.8032803 290.244308,70.8032803 289.845271,70.8032803 L285.80317,70.8032803 C285.219393,70.8032803 284.676258,70.7626376 284.214409,70.6998261 C283.741476,70.6111511 283.371997,70.4153272 283.128141,70.0532377 C282.924927,69.7613492 282.817778,69.3807857 282.791915,68.9004629 C282.762357,68.4349192 282.754967,67.9176485 282.754967,67.3708194 L282.754967,62.1353005 L282.754967,51.0102848 C282.754967,49.1665841 282.677376,47.4485063 282.522195,45.8819149 C282.389183,44.322713 281.923639,42.9925883 281.188376,41.8915406 C280.597209,41.052823 279.78066,40.4247085 278.72395,40.0035024 C278.029329,39.656192 276.917197,39.4308097 275.660968,39.4308097 C274.201526,39.4308097 272.930518,39.744867 272.298708,40.1993263 C271.781438,40.4025398 271.349147,40.6427012 270.95011,40.9272001 C269.357655,42.0688905 268.411788,43.7389361 268.1199,45.9225576 C267.820622,48.1283478 267.654356,50.5890786 267.654356,53.3121396 L267.654356,62.6636557 L267.654356,67.219333 C267.654356,67.6700975 267.654356,68.1171672 267.654356,68.5642369 C267.654356,69.0076118 267.595239,69.3844805 267.440058,69.6800638 C267.199897,70.2342825 266.79347,70.5594241 266.239251,70.6480991 C265.685033,70.7441636 265.023665,70.7995855 264.221895,70.7995855 L260.490156,70.7995855 C259.943327,70.7995855 259.392803,70.7811115 258.853364,70.7256897 C258.299145,70.685047 257.911192,70.5113918 257.667336,70.2010293 C257.308941,69.7576544 257.157455,69.1184556 257.172234,68.2686536 C257.194403,67.4225465 257.212877,66.6170821 257.212877,65.8781238 L257.212877,55.7063642 L257.212877,39.2867129 L257.212877,35.466299 C257.212877,34.9194699 257.220266,34.4169783 257.227656,33.9736034 C257.260909,33.5191441 257.408701,33.1533598 257.663641,32.8393026 C257.763401,32.7025953 257.911192,32.5880568 258.143964,32.5178557 C258.358262,32.4513495 258.609508,32.3663693 258.853364,32.3294214 L259.222843,32.3294214 C259.477784,32.2813891 259.736419,32.2629152 260.002444,32.2629152 C260.283248,32.2629152 260.549273,32.2629152 260.800519,32.2629152 L263.930007,32.2629152 C264.321655,32.2629152 264.716997,32.2703047 265.082782,32.2924735 C265.455955,32.3146422 265.803266,32.3663693 266.102544,32.4919922 C266.453549,32.6323943 266.678931,32.8429974 266.815639,33.1570546 C266.919093,33.4083004 266.919093,33.7038837 267.007768,34.0364149 C267.214676,34.8973012 267.443753,35.8357781 268.090341,35.9207583 C268.371146,35.9503166 268.670424,35.8209989 268.910585,35.5845323 C269.032513,35.5069417 269.34657,35.1818001 269.442635,35.059872 C269.782556,34.634971 270.455008,34.0253305 270.872519,33.7740847 C271.160713,33.5634816 271.3824,33.41569 271.604088,33.2789827 C272.335656,32.7875755 273.399756,32.3109475 274.685543,31.9451631 C274.722491,31.9377736 274.777913,31.9156048 274.83703,31.8934361 C275.254541,31.7493392 275.664663,31.6569694 276.108038,31.6126319 C276.292778,31.5719892 276.492296,31.5387361 276.699205,31.5091778 C278.347081,31.2283737 279.887809,31.1581727 281.077532,31.3096591 C283.176173,31.435282 284.971842,31.8454038 286.486706,32.5732776 C288.481893,33.5117545 290.055874,34.9046907 291.190175,36.7483915 C291.552264,37.2952205 291.821984,37.8900819 292.025198,38.507112 C292.221022,39.1130577 292.42793,39.7596461 292.623754,40.398845 C292.708734,40.8126616 292.78263,41.1747511 292.808493,41.5368406 C292.834357,41.8767614 292.893474,42.2277665 292.985843,42.5713821 C292.985843,42.8817446 293.022791,43.0701789 293.067129,43.1625487 C293.181667,43.8682538 293.218615,44.588738 293.218615,45.3424754 C293.21492,46.0888232 293.21492,46.798223 293.21492,47.4928437 Z"></path>
                </g>
                <g transform="translate(0.000000, 16.881353)" id="Shape">
                    <path d="M38.6179557,32.8357548 C38.7103255,33.1350329 38.7620526,33.6559984 38.7620526,34.3690931 C38.7620526,35.0932721 38.7398838,35.6031533 38.6918515,35.9024314 C38.6918515,36.1462876 38.684462,36.3531959 38.6622932,36.5231563 C38.6253453,36.7078958 38.6142609,36.9184989 38.6142609,37.1660499 C38.5108068,37.5576977 38.4627745,37.941956 38.4627745,38.3114351 C38.4627745,38.6956934 38.4110474,39.0836464 38.3112881,39.4789891 C38.3112881,39.674813 38.2743402,40.0295129 38.1745808,40.5209201 C38.01201,41.1083919 37.8753027,41.7291168 37.7607642,42.3535365 C37.6314465,42.963177 37.4430122,43.5506488 37.199156,44.0937831 C36.297627,46.3365212 35.1781053,48.2799813 33.8442857,49.9241633 C32.495687,51.5535661 30.7369665,52.8393534 28.553345,53.7815251 C28.1099701,53.9884334 27.6444264,54.1399198 27.1604088,54.2655427 C26.7022547,54.3948604 26.1960683,54.5241781 25.6418497,54.6830541 C25.3388768,54.7828135 25.0359039,54.8345405 24.7144571,54.8345405 C24.3967051,54.8345405 24.0752583,54.8493197 23.7685906,54.9010468 L23.1146126,54.9010468 C22.8190293,55.0118905 22.4089075,55.0451436 21.9138055,55.0118905 C21.4113139,54.9934166 21.0233609,54.9342999 20.720388,54.8345405 L20.2733183,54.8345405 C20.0257673,54.7828135 19.748658,54.7421708 19.4493799,54.720002 C19.1611862,54.7089177 18.8545186,54.6571906 18.5626301,54.6091583 C17.6389323,54.3653021 16.7410981,54.1066667 15.9578024,53.8591157 C15.1634223,53.6189543 14.4133798,53.2568648 13.7113695,52.8171847 C13.4268706,52.6176659 13.1312873,52.4292316 12.8652623,52.2223233 C12.5918478,52.0264994 12.3295176,51.7974223 12.074577,51.5498713 C11.9304802,51.4538068 11.7863833,51.3577422 11.6422865,51.2468985 C11.4760209,51.1508339 11.3319241,51.0769381 11.1767428,51.0289058 C10.7407575,50.8774194 10.4599534,50.9771787 10.360194,51.3318787 C10.1163378,51.6865786 9.96485138,52.085616 9.88356597,52.5585493 C9.79489099,53.0314825 9.61754102,53.3861825 9.31826295,53.6448178 C9.02267967,53.836947 8.67167452,53.9477907 8.2689423,53.9736542 C7.87729445,53.995823 7.42652995,54.0106022 6.93512274,54.0106022 L3.35487024,54.0106022 C3.00755989,54.0106022 2.63808079,54.0179917 2.27599127,54.0401605 C1.89912258,54.066024 1.57398097,54.0327709 1.27100811,53.9367063 C0.572692608,53.6928501 0.188434342,53.2273065 0.118233313,52.5548545 C0.0443374922,51.8824025 0.00369479102,51.1323599 0.00369479102,50.282558 L0.00369479102,4.81815454 C0.00369479102,4.26393589 0.00369479102,3.69124328 0.00369479102,3.10007672 C0.00369479102,2.49782578 0.125622895,2.02858732 0.369479102,1.68866655 C0.576387399,1.33027182 0.923697754,1.11227915 1.42249454,1.008825 C1.52964348,0.960792717 1.62570805,0.949708344 1.75502573,0.975571881 C1.88803821,1.00143542 1.98779757,0.986656254 2.08386213,0.938623971 L6.79472068,0.938623971 C7.67408094,0.938623971 8.45737664,0.975571881 9.08549111,1.05316249 C9.73207954,1.13444789 10.1717597,1.51131658 10.360194,2.20593729 C10.51907,2.70473408 10.5560179,3.3550173 10.51907,4.18634528 C10.4599534,5.00658888 10.4414794,5.70859917 10.4414794,6.30346053 L10.4414794,14.428306 C10.4414794,14.9788298 10.4414794,15.5182693 10.4414794,16.0687932 C10.4414794,16.6193171 10.4784273,17.0885555 10.5855763,17.4912877 C10.6299138,17.7425335 10.7001148,17.9568314 10.7370627,18.1304866 C10.7887898,18.2930574 10.9144127,18.4149855 11.102847,18.459323 C11.2099959,18.5590823 11.3356188,18.5960302 11.5129688,18.5960302 C11.7014032,18.5960302 11.8381104,18.5849459 11.9267854,18.529524 C12.2777906,18.3300053 12.5992374,18.1304866 12.8985154,17.8977147 C13.1977935,17.6797221 13.5229351,17.4395607 13.8665507,17.1920097 C14.5205287,16.7486347 15.1818963,16.3643765 15.8839066,16.0355401 C16.5748325,15.7103985 17.3396542,15.4369839 18.193151,15.1746538 C18.5958832,15.0231673 18.9838362,14.9381871 19.3828737,14.9160184 C19.7782163,14.9012392 20.1883381,14.8310382 20.579986,14.7238893 C20.9272963,14.6241299 21.2967754,14.5760976 21.6995076,14.5760976 C22.0837659,14.5760976 22.4828033,14.5760976 22.9003147,14.5760976 L23.6318834,14.5760976 C23.7722854,14.6241299 23.957025,14.6352143 24.1565437,14.6130455 C24.363452,14.5945716 24.5555811,14.6093507 24.7477102,14.6610778 C25.2982341,14.8014799 25.8118101,14.9160184 26.2847433,14.9899142 C26.7539818,15.0748944 27.2084411,15.2116017 27.6629004,15.3963412 C29.9425864,16.3422077 31.8084559,17.5651836 33.2494244,19.0541843 C34.6940877,20.5468799 35.9059791,22.4090546 36.9072675,24.6370136 C37.1548185,25.2429593 37.358032,25.8599894 37.5464663,26.5102726 C37.7201215,27.1494715 37.8937767,27.8219234 38.1080746,28.5276285 C38.1967495,28.8749389 38.2669506,29.20747 38.2854245,29.5215273 C38.3075933,29.8429741 38.3630151,30.2087584 38.4664693,30.6114906 C38.5662286,30.8664312 38.595787,31.1324562 38.5810078,31.4280394 C38.5440599,31.7310123 38.5662286,32.0265956 38.6179557,32.3295685 L38.6179557,32.8357548 Z M27.5779202,39.8373838 C27.7294066,39.3496714 27.8735034,38.7326413 27.9843472,37.9789039 C28.1136649,37.2362509 28.1838659,36.4825136 28.2097294,35.713997 C28.235593,34.9417857 28.235593,34.176964 28.2097294,33.4010579 C28.1801711,32.6362361 28.1099701,31.9674789 27.9547888,31.4243447 C27.7996076,30.9255479 27.6961535,30.4526146 27.6555108,29.9981553 C27.6074785,29.56217 27.4818556,29.1446586 27.2712525,28.7456212 C26.5803266,26.997985 25.6049018,25.5274582 24.3375884,24.3081772 C23.0702751,23.0925909 21.2228796,22.4866452 18.7806227,22.4866452 C18.5884936,22.4866452 18.4111436,22.4977296 18.263352,22.5198983 C18.104476,22.5457618 17.9419052,22.5642358 17.7386917,22.5642358 C17.3839917,22.6529108 17.0588501,22.7341962 16.778046,22.8117868 C16.4713784,22.896767 16.1757951,22.9817472 15.876517,23.0852013 C14.4318537,23.7244002 13.330806,24.6222344 12.5955426,25.7934831 C11.8528896,26.9647319 11.2284699,28.2948567 10.7333679,29.791247 C10.5818815,30.1828949 10.4932065,30.5967115 10.4710377,31.0179176 C10.4414794,31.435429 10.3823628,31.841856 10.2789086,32.2482831 C10.2382659,32.3960747 10.2160972,32.6436257 10.2160972,32.9798517 C10.1643701,33.1904548 10.1422013,33.3936683 10.1717597,33.5821026 C10.1865388,33.7853161 10.1865388,33.9848348 10.1422013,34.1732692 C10.0350524,34.5870858 10.0128837,35.1265253 10.0498316,35.8248408 C10.1089482,36.5120719 10.1902336,37.0034791 10.2789086,37.3138415 C10.3823628,37.7535217 10.4414794,38.1784226 10.4710377,38.5663757 C10.4932065,38.9764975 10.5781867,39.3681453 10.7333679,39.7671828 C11.1693532,41.1638138 11.7235719,42.3646209 12.340602,43.3843832 C12.9687165,44.3967559 13.8369924,45.2576422 14.974988,45.9596525 C15.7915368,46.4510597 16.5896117,46.8020649 17.4394136,47.0015836 C17.5428678,47.0015836 17.6537115,47.012668 17.786724,47.0459211 C17.8901781,47.0680898 18.0379697,47.0791742 18.1857614,47.0791742 C18.3409426,47.1124273 18.5884936,47.1604596 18.9321092,47.1900179 C19.2720299,47.2047971 19.5750028,47.1974075 19.8336382,47.1419856 C20.3213506,47.0459211 20.7868943,46.9535513 21.1970161,46.8833503 C21.6330014,46.8205388 22.028344,46.7060003 22.4384659,46.5508191 C23.8240125,45.9079254 24.8991967,45.0100912 25.671408,43.8610112 C26.4473141,42.7267104 27.0828182,41.3855012 27.5779202,39.8373838 Z"></path>
                    <path d="M40.1549888,15.3889516 L45.8154086,15.3889516 C46.3179002,15.3889516 46.8056126,15.3889516 47.3044094,15.3889516 C47.8105958,15.3889516 48.2281072,15.4961006 48.5828071,15.6845349 C49.185058,16.0798776 49.5804007,16.7116868 49.8094777,17.557794 C50.03486,18.4075959 50.263937,19.1761124 50.5151828,19.8707331 C50.7664286,20.4618997 50.9844213,21.093709 51.1469921,21.7366026 C51.3354264,22.3721067 51.5386399,22.9965263 51.7751065,23.5876929 C52.1704492,24.7441625 52.5584022,25.8599894 52.9020178,26.9869006 C53.2493281,28.1064223 53.6261968,29.20747 54.0215395,30.3122126 L55.5918257,34.9861232 C55.7285329,35.4442773 55.8615454,35.909821 55.9945579,36.3827542 C56.1201808,36.8482979 56.2827516,37.3101468 56.4822703,37.7535217 C56.6152828,38.1488643 56.7889379,38.6033236 56.9699827,39.0947308 C57.1325535,39.5935276 57.5057274,39.8152151 58.0451669,39.7671828 C58.1449262,39.6674234 58.2336012,39.604612 58.2964127,39.5676641 C58.3850877,39.5639693 58.4663731,39.4937682 58.5550481,39.4050933 C58.7065345,39.1575423 58.8432417,38.8878225 58.9356115,38.6513559 C59.0464553,38.4074997 59.138825,38.1525591 59.2496688,37.9087029 C59.4898302,37.3655686 59.6856541,36.7744021 59.8371405,36.157372 C59.988627,35.5292575 60.1511978,34.9233118 60.3507165,34.3321452 C61.0601164,32.2445883 61.7325683,30.1792001 62.3791568,28.1396754 C63.0183556,26.096456 63.6797232,24.045847 64.3743439,21.9472057 C64.6292845,21.2673642 64.8398876,20.5653539 65.009848,19.9039863 C65.1798083,19.2389239 65.3941062,18.5775563 65.6416572,17.9346627 C65.7968384,17.5356252 65.9261561,17.151367 66.0628634,16.7708035 C66.1700123,16.4013244 66.4175633,16.0872671 66.7685685,15.8434109 C67.0530674,15.5995547 67.4225465,15.4628475 67.8770058,15.4369839 C68.3314651,15.4258996 68.8339567,15.3963412 69.3660066,15.3963412 L73.9179891,15.3963412 C74.4204807,15.3963412 74.87494,15.4369839 75.3478732,15.4739318 C75.7838586,15.5182693 76.1274741,15.6808401 76.3934991,15.9283911 C76.6890824,16.2757015 76.7260303,16.7227712 76.5375959,17.2659055 C76.430447,17.6686377 76.3122137,18.0676751 76.1607273,18.4630178 C76.005546,18.8546656 75.865144,19.272177 75.7099627,19.6564353 C75.0190368,21.3892923 74.3355005,23.1701815 73.6926069,24.9917135 C73.0497132,26.8021611 72.3920404,28.5867452 71.6826405,30.3269917 C71.3722781,31.0548656 71.1099479,31.8196873 70.8660917,32.5808142 C70.6111511,33.3604152 70.3340418,34.1178473 70.0495429,34.8641951 C69.7982971,35.5514262 69.535967,36.227573 69.3031951,36.8778562 C69.0482545,37.5207498 68.8007035,38.1932018 68.545763,38.8915173 C67.5592538,41.3707221 66.635556,43.8684008 65.7451114,46.3771639 C64.8805303,48.8785374 63.9642221,51.3651318 62.9629337,53.7889147 C62.8077525,54.1473094 62.6969088,54.4687562 62.6377921,54.7680343 C62.5528119,55.0636176 62.4382734,55.3702852 62.286787,55.6547842 C61.8951391,56.6006507 61.5145757,57.5169588 61.1820445,58.414793 C60.8236497,59.3126273 60.4578654,60.1772084 60.058828,60.9863676 C59.6560958,61.8066112 59.1905521,62.5640434 58.643723,63.2660537 C58.0895044,63.9532848 57.4170524,64.5777045 56.6152828,65.1245335 C55.9908631,65.5789928 55.2703788,65.9336928 54.4981675,66.2034125 C53.7370406,66.4879114 52.898323,66.7391572 52.0004888,66.9977926 C51.6125357,67.0938571 51.2134983,67.1381946 50.7959869,67.1381946 C50.4117286,67.1381946 50.016386,67.1862269 49.6173486,67.2896811 L47.6812781,67.2896811 C47.2859354,67.2896811 46.8019178,67.2896811 46.2624783,67.2896811 C45.7193441,67.2896811 45.1835994,67.2638175 44.658939,67.2083957 C44.1527527,67.1603634 43.6576507,67.1123311 43.2438341,67.0347405 C42.8300175,66.9497603 42.5270446,66.8463061 42.3164415,66.6837353 C42.0725853,66.4989958 41.9174041,66.2514448 41.8472031,65.981725 C41.7585281,65.7083105 41.6587687,65.3646949 41.566399,64.9804367 L41.566399,63.188463 C41.566399,62.3423559 41.566399,61.4445217 41.566399,60.50235 C41.566399,59.5564835 41.8693718,58.9579273 42.467928,58.7251555 C42.715479,58.6143118 43.0443154,58.5478055 43.4692163,58.5256368 C43.8941173,58.5145524 44.252512,58.5330264 44.5554849,58.6512597 L46.3991856,58.6512597 L47.2970198,58.6512597 C47.4965385,58.5847534 47.6960572,58.5699743 47.9103551,58.5699743 C48.1024843,58.5699743 48.2983082,58.5256368 48.5015217,58.4184878 C50.03486,57.9751129 51.0287587,56.9516558 51.4795233,55.37398 C51.571893,55.1744613 51.6938211,54.8604041 51.767717,54.472451 C51.8748659,54.0697188 51.8748659,53.729798 51.767717,53.4342148 C51.6938211,53.1866638 51.6273149,52.935418 51.6273149,52.6804774 C51.6273149,52.4440108 51.571893,52.1890702 51.4795233,51.945214 C51.1765504,50.9513152 50.8514088,49.9611112 50.5077932,48.9893812 C50.175262,48.0287355 49.7799194,47.0680898 49.3956611,46.1370025 C48.9966237,45.1763568 48.6345342,44.2341851 48.3130873,43.2920134 C47.9916405,42.3572313 47.6369406,41.40767 47.2379032,40.4618035 C46.9792678,39.8558578 46.7760543,39.2646912 46.5950095,38.6735246 C46.4287439,38.0749685 46.2107513,37.4801071 45.9668951,36.8889406 C45.172515,35.0009024 44.4409464,33.0611371 43.7647996,31.0659499 C43.103432,29.0892367 42.360779,27.1457767 41.5590094,25.2614332 C41.4703344,25.0693041 41.4112177,24.8956489 41.4112177,24.7811104 C41.4112177,24.6407084 41.3742698,24.5076959 41.2634261,24.3599042 C40.8717782,23.4694596 40.5244679,22.5642358 40.2584429,21.6331485 C39.9813336,20.7279247 39.6414128,19.8448696 39.2571546,18.9987625 C39.142616,18.6957896 38.9948244,18.2745834 38.7842213,17.698196 C38.5477547,17.1255034 38.5218912,16.6414858 38.6585984,16.2387536 C38.8026953,15.8397161 39.1278369,15.5884704 39.6229389,15.4924058 C39.7337826,15.4554579 39.8076784,15.4480683 39.885269,15.4554579 C39.9665544,15.4591527 40.0515346,15.4554579 40.1549888,15.3889516 Z"></path>
                </g>
            </g>
        </g>
    </g>
</svg>